<svg width="198" height="22" viewBox="0 0 198 22" fill="none" xmlns="http://www.w3.org/2000/svg">
<path fill-rule="evenodd" clip-rule="evenodd" d="M53.7073 12.7798H40.7159C40.875 12.6309 41.044 12.4878 41.2227 12.3506C41.9518 11.7907 42.8177 11.348 43.8203 11.0225C44.8359 10.6969 45.9492 10.5342 47.1602 10.5342C48.4622 10.5342 49.6341 10.7035 50.6758 11.042C51.7174 11.3805 52.6029 11.8493 53.332 12.4482C53.4625 12.5554 53.5876 12.666 53.7073 12.7798ZM77.2284 12.7798H65.11C65.8389 12.1542 66.6395 11.653 67.5117 11.2764C68.6706 10.7816 69.8555 10.5342 71.0664 10.5342C72.5898 10.5342 73.918 10.8011 75.0508 11.335C75.8786 11.7112 76.6045 12.1929 77.2284 12.7798ZM149.32 12.7798H136.298C136.399 12.6872 136.504 12.5962 136.613 12.5068C137.329 11.9209 138.202 11.4456 139.23 11.0811C140.272 10.7165 141.451 10.5342 142.766 10.5342C143.964 10.5342 145.077 10.6839 146.105 10.9834C147.134 11.2699 148.026 11.7061 148.781 12.292C148.971 12.4452 149.151 12.6078 149.32 12.7798ZM197.346 12.7798H185.227C185.956 12.1542 186.757 11.653 187.629 11.2764C188.788 10.7816 189.973 10.5342 191.184 10.5342C192.707 10.5342 194.035 10.8011 195.168 11.335C195.996 11.7112 196.722 12.1929 197.346 12.7798ZM176.427 12.7798H168.168C168.348 12.4879 168.559 12.2146 168.801 11.96C169.048 11.6995 169.315 11.4717 169.602 11.2764C169.966 11.055 170.37 10.8792 170.812 10.749C171.268 10.6188 171.763 10.5472 172.297 10.5342C173.026 10.5342 173.684 10.6449 174.27 10.8662C174.855 11.0745 175.35 11.387 175.754 11.8037C176.014 12.0795 176.239 12.4049 176.427 12.7798ZM168.147 12.7798C168.006 12.4623 167.833 12.176 167.629 11.9209C167.434 11.6605 167.212 11.4391 166.965 11.2568C166.626 11.0225 166.229 10.8467 165.773 10.7295C165.331 10.5993 164.829 10.5342 164.27 10.5342C163.28 10.5472 162.434 10.762 161.73 11.1787C161.083 11.5694 160.551 12.1031 160.133 12.7798H168.147ZM160.044 12.7798H156.711V10.9248H159.953L160.044 12.7798ZM125.934 12.7798H114.817C115.177 12.4272 115.554 12.1214 115.949 11.8623C116.574 11.4456 117.251 11.1266 117.98 10.9053C118.723 10.6709 119.504 10.5472 120.324 10.5342C121.431 10.5342 122.434 10.6904 123.332 11.0029C124.243 11.3154 125.018 11.8037 125.656 12.4678C125.752 12.5677 125.845 12.6717 125.934 12.7798ZM113.639 12.7798H110.246V10.9248H113.488L113.639 12.7798ZM103.541 12.7798H94.2251C94.7545 12.3035 95.3292 11.8935 95.9492 11.5498C97.1602 10.8727 98.5339 10.5342 100.07 10.5342C100.734 10.5342 101.424 10.5798 102.141 10.6709C102.87 10.762 103.417 10.8857 103.781 11.042L103.541 12.7798ZM92.7898 12.7798H89.25V10.9248H92.6875L92.7898 12.7798ZM31.3594 12.7798H27.7266V10.9248H31.3594V12.7798ZM17.8828 12.7798H14.2695V10.9248H17.8828V12.7798Z" fill="white"/>
<path fill-rule="evenodd" clip-rule="evenodd" d="M21.5181 21.5234H18.2368L18.022 18.6133C17.3188 19.6549 16.4399 20.4688 15.3853 21.0547C14.3306 21.6276 13.1131 21.9141 11.7329 21.9141C10.6261 21.9141 9.62354 21.7448 8.7251 21.4062C7.82666 21.0547 7.05843 20.5143 6.42041 19.7852C5.78239 19.056 5.2876 18.1315 4.93604 17.0117C4.59749 15.8789 4.42822 14.5247 4.42822 12.9492V0.390625H8.0415V10.925H6.59082V12.7801H8.0415V12.9883C8.0415 14.1341 8.13265 15.0846 8.31494 15.8398C8.49723 16.5951 8.77067 17.194 9.13525 17.6367C9.49984 18.0924 9.94255 18.4115 10.4634 18.5938C10.9972 18.776 11.6092 18.8672 12.2993 18.8672C13.1066 18.8672 13.8293 18.776 14.4673 18.5938C15.1053 18.3984 15.6587 18.1315 16.1274 17.793C16.5181 17.5195 16.8566 17.194 17.1431 16.8164C17.4425 16.4258 17.6899 16.0026 17.8853 15.5469V0.390625H21.5181V10.925H20.0479V12.7801H21.5181V21.5234ZM42.1821 16.875C42.3123 16.5755 42.3774 16.2565 42.3774 15.918C42.3774 15.4883 42.2928 15.1042 42.1235 14.7656C41.9543 14.4141 41.6678 14.0951 41.2642 13.8086C40.8605 13.5221 40.3267 13.2617 39.6626 13.0273C39.433 12.9418 39.1839 12.8594 38.9154 12.7801H45.0484C45.1891 12.9661 45.3144 13.1592 45.4243 13.3594C45.8019 14.0234 45.9907 14.7917 45.9907 15.6641C45.9907 16.6016 45.7759 17.4544 45.3462 18.2227C44.9295 18.9909 44.3436 19.6484 43.5884 20.1953C42.8332 20.7422 41.9282 21.1654 40.8735 21.4648C39.8188 21.7643 38.6665 21.9141 37.4165 21.9141C35.9842 21.9141 34.7082 21.7253 33.5884 21.3477C32.4686 20.957 31.5246 20.4427 30.7563 19.8047C29.9751 19.1797 29.3761 18.4505 28.9595 17.6172C28.5558 16.7839 28.354 15.918 28.354 15.0195H31.9673C32.0194 15.7617 32.2147 16.3867 32.5532 16.8945C32.9048 17.4023 33.341 17.8125 33.8618 18.125C34.3696 18.4375 34.936 18.6589 35.561 18.7891C36.186 18.9193 36.8045 18.9844 37.4165 18.9844C38.38 18.9844 39.2199 18.8737 39.936 18.6523C40.6522 18.418 41.2121 18.099 41.6157 17.6953C41.8631 17.4479 42.0519 17.1745 42.1821 16.875ZM42.7556 10.9674C42.2933 10.7346 41.7832 10.5228 41.2251 10.332C40.1965 9.96745 39.0311 9.64844 37.729 9.375C36.7394 9.17969 35.9191 8.97786 35.2681 8.76953C34.63 8.5612 34.1222 8.32682 33.7446 8.06641C33.354 7.80599 33.0806 7.51302 32.9243 7.1875C32.7681 6.86198 32.6899 6.49089 32.6899 6.07422C32.6899 5.67057 32.7876 5.27995 32.9829 4.90234C33.1782 4.52474 33.4712 4.19271 33.8618 3.90625C34.2394 3.61979 34.7147 3.39193 35.2876 3.22266C35.8735 3.05339 36.5506 2.96875 37.3188 2.96875C38.061 2.96875 38.7251 3.07292 39.311 3.28125C39.91 3.48958 40.4178 3.76302 40.8345 4.10156C41.2511 4.4401 41.5767 4.83073 41.811 5.27344C42.0454 5.70312 42.1626 6.14583 42.1626 6.60156H45.7759C45.7759 5.67708 45.5741 4.81771 45.1704 4.02344C44.7798 3.21615 44.2199 2.51302 43.4907 1.91406C42.7616 1.3151 41.8761 0.846354 40.8345 0.507812C39.7928 0.169271 38.6209 0 37.3188 0C36.1079 0 34.9946 0.16276 33.979 0.488281C32.9764 0.813802 32.1105 1.25651 31.3813 1.81641C30.6522 2.3763 30.0858 3.03385 29.6821 3.78906C29.2785 4.53125 29.0767 5.33203 29.0767 6.19141C29.0767 7.0638 29.272 7.83203 29.6626 8.49609C30.0532 9.14714 30.6066 9.71354 31.3228 10.1953C32.0259 10.6901 32.8722 11.1133 33.8618 11.4648C34.0884 11.5443 34.3202 11.6211 34.5574 11.6952C35.0409 11.4328 35.5689 11.2086 36.1416 11.0227C37.1572 10.6972 38.2705 10.5344 39.4814 10.5344C40.6838 10.5344 41.7752 10.6788 42.7556 10.9674ZM66.8696 20.6836C65.4764 21.5039 63.7511 21.9141 61.6938 21.9141C60.2095 21.9141 58.8423 21.6602 57.5923 21.1523C56.3553 20.6445 55.2941 19.9349 54.4087 19.0234C53.5233 18.112 52.8332 17.0312 52.3384 15.7812C51.8436 14.5312 51.5962 13.1706 51.5962 11.6992V10.8789C51.5962 9.17318 51.8696 7.64974 52.4165 6.30859C52.9634 4.95443 53.6925 3.80859 54.604 2.87109C55.5024 1.94661 56.5246 1.23698 57.6704 0.742188C58.8293 0.247396 60.0142 0 61.2251 0C62.7485 0 64.0767 0.266927 65.2095 0.800781C66.3553 1.32161 67.3058 2.04427 68.061 2.96875C68.8162 3.90625 69.3761 5.00651 69.7407 6.26953C70.1183 7.53255 70.3071 8.89974 70.3071 10.3711V11.9922H68.5577C68.189 11.7459 67.7937 11.5269 67.3721 11.3352C66.2393 10.8013 64.9111 10.5344 63.3877 10.5344C62.1768 10.5344 60.9919 10.7818 59.833 11.2766C59.364 11.4791 58.9157 11.7177 58.4881 11.9922H55.2095V12.1289C55.3006 13.1576 55.5024 14.0625 55.8149 14.8438C56.1405 15.625 56.5832 16.3151 57.1431 16.9141C57.716 17.5521 58.4061 18.0534 59.2134 18.418C60.0207 18.7826 60.9126 18.9648 61.8892 18.9648C63.1782 18.9648 64.3241 18.7044 65.3267 18.1836C66.3293 17.6628 67.1626 16.9727 67.8267 16.1133L70.0337 17.832C69.3306 18.8997 68.2759 19.8503 66.8696 20.6836ZM63.6079 3.47656C62.9438 3.13802 62.1496 2.96875 61.2251 2.96875C60.4959 2.96875 59.8058 3.10547 59.1548 3.37891C58.5037 3.63932 57.9178 4.02344 57.397 4.53125C56.8761 5.05208 56.4334 5.6901 56.0688 6.44531C55.7173 7.1875 55.4699 8.04688 55.3267 9.02344H66.6938V8.84766C66.6938 8.19661 66.5701 7.5 66.3228 6.75781C66.0754 6.0026 65.7303 5.35156 65.2876 4.80469C64.8449 4.25781 64.285 3.8151 63.6079 3.47656ZM86.1079 1.01562C87.3188 0.338542 88.6925 0 90.229 0C90.8931 0 91.5832 0.0455729 92.2993 0.136719C93.0285 0.227865 93.5754 0.351562 93.9399 0.507812L93.4517 4.04297C92.7485 3.88672 92.078 3.77604 91.4399 3.71094C90.8149 3.63281 90.1574 3.59375 89.4673 3.59375C88.5819 3.59375 87.7811 3.70443 87.0649 3.92578C86.3488 4.13411 85.7238 4.44661 85.1899 4.86328C84.7082 5.22786 84.285 5.67708 83.9204 6.21094C83.5688 6.73177 83.2759 7.31771 83.0415 7.96875V10.925H81.5713V12.7801H83.0415V21.5234H79.4087V0.390625H82.8462L83.0024 3.22266L83.022 3.75C83.8813 2.59115 84.91 1.67969 86.1079 1.01562ZM104.018 21.5234H100.405V0.390625H103.647L103.901 3.51562C104.213 3.07292 104.552 2.66927 104.917 2.30469C105.294 1.92708 105.691 1.60156 106.108 1.32812C106.733 0.911458 107.41 0.592448 108.139 0.371094C108.881 0.136719 109.663 0.0130208 110.483 0C111.59 0 112.592 0.15625 113.491 0.46875C114.402 0.78125 115.177 1.26953 115.815 1.93359C116.453 2.59766 116.941 3.44401 117.28 4.47266C117.631 5.48828 117.807 6.69922 117.807 8.10547V12.2979C117.203 11.7199 116.485 11.2883 115.653 11.0032C115.194 10.8434 114.708 10.7245 114.194 10.6464V8.18359C114.194 7.24609 114.09 6.45182 113.881 5.80078C113.673 5.14974 113.367 4.6224 112.963 4.21875C112.547 3.8151 112.039 3.52214 111.44 3.33984C110.854 3.15755 110.177 3.06641 109.409 3.06641C108.745 3.06641 108.126 3.16406 107.553 3.35938C106.98 3.54167 106.453 3.79557 105.971 4.12109C105.581 4.40755 105.216 4.73958 104.877 5.11719C104.552 5.49479 104.265 5.91146 104.018 6.36719V10.925H102.567V12.7801H104.018V21.5234ZM114.194 12.7801V21.5234H117.807V12.7801H114.194ZM142.084 21.5234H138.315C138.172 21.25 138.055 20.9115 137.963 20.5078C137.885 20.0911 137.827 19.6615 137.788 19.2188C137.423 19.5833 137.013 19.9284 136.557 20.2539C136.114 20.5794 135.626 20.8659 135.092 21.1133C134.545 21.3607 133.966 21.556 133.354 21.6992C132.742 21.8424 132.091 21.9141 131.401 21.9141C130.281 21.9141 129.265 21.7513 128.354 21.4258C127.456 21.1003 126.694 20.6576 126.069 20.0977C125.431 19.5508 124.936 18.8997 124.584 18.1445C124.246 17.3763 124.077 16.5495 124.077 15.6641C124.077 14.5052 124.305 13.4896 124.76 12.6172C125.229 11.7448 125.887 11.0156 126.733 10.4297C127.579 9.85677 128.595 9.42708 129.78 9.14062C130.978 8.85417 132.312 8.71094 133.784 8.71094H137.729V7.05078C137.729 6.41276 137.612 5.83984 137.377 5.33203C137.143 4.82422 136.811 4.38802 136.381 4.02344C135.952 3.67188 135.424 3.39844 134.799 3.20312C134.187 3.00781 133.497 2.91016 132.729 2.91016C132.013 2.91016 131.368 3.0013 130.795 3.18359C130.236 3.36589 129.76 3.60677 129.37 3.90625C128.979 4.20573 128.673 4.5638 128.452 4.98047C128.243 5.38411 128.139 5.80729 128.139 6.25H124.506C124.519 5.48177 124.715 4.72656 125.092 3.98438C125.483 3.24219 126.043 2.57161 126.772 1.97266C127.488 1.38672 128.361 0.911458 129.389 0.546875C130.431 0.182292 131.609 0 132.924 0C134.122 0 135.236 0.14974 136.264 0.449219C137.293 0.735677 138.185 1.17188 138.94 1.75781C139.682 2.35677 140.268 3.09896 140.698 3.98438C141.127 4.86979 141.342 5.90495 141.342 7.08984V12.4955C141.264 12.426 141.184 12.3582 141.103 12.2922C140.347 11.7063 139.455 11.2701 138.427 10.9836C137.398 10.6841 136.285 10.5344 135.087 10.5344C133.772 10.5344 132.593 10.7167 131.552 11.0813C130.523 11.4459 129.651 11.9211 128.935 12.5071C128.826 12.5965 128.721 12.6875 128.619 12.7801H128.65C128.37 13.047 128.148 13.3508 127.983 13.6914C127.788 14.1211 127.69 14.6094 127.69 15.1562C127.69 15.6771 127.775 16.1589 127.944 16.6016C128.126 17.0443 128.393 17.4219 128.745 17.7344C129.096 18.0599 129.539 18.3138 130.073 18.4961C130.607 18.6784 131.225 18.7695 131.928 18.7695C132.631 18.7695 133.289 18.6784 133.901 18.4961C134.513 18.3138 135.073 18.0729 135.581 17.7734C136.075 17.474 136.505 17.1354 136.87 16.7578C137.234 16.3672 137.521 15.9635 137.729 15.5469V12.7801H141.342V16.9141C141.342 17.6172 141.407 18.3659 141.538 19.1602C141.668 19.9414 141.85 20.625 142.084 21.2109V21.5234ZM146.87 0.390625H150.112L150.209 2.38281C150.639 1.64062 151.199 1.0612 151.889 0.644531C152.592 0.227865 153.439 0.0130208 154.428 0C154.988 0 155.489 0.0651042 155.932 0.195312C156.388 0.3125 156.785 0.488281 157.124 0.722656C157.371 0.904948 157.592 1.1263 157.788 1.38672C157.996 1.64714 158.172 1.9401 158.315 2.26562C158.497 1.96615 158.712 1.6862 158.959 1.42578C159.207 1.16536 159.474 0.9375 159.76 0.742188C160.125 0.520833 160.528 0.345052 160.971 0.214844C161.427 0.0846354 161.922 0.0130208 162.456 0C163.185 0 163.842 0.110677 164.428 0.332031C165.014 0.540365 165.509 0.852865 165.913 1.26953C166.355 1.73828 166.694 2.35026 166.928 3.10547C167.163 3.84766 167.28 4.72656 167.28 5.74219V11.1834C167.066 11.0595 166.837 10.9538 166.591 10.8664C166.005 10.6451 165.347 10.5344 164.618 10.5344C164.35 10.541 164.091 10.5623 163.842 10.5985V5.70312C163.842 5.26042 163.79 4.86979 163.686 4.53125C163.582 4.19271 163.432 3.91276 163.237 3.69141C163.028 3.48307 162.768 3.32682 162.456 3.22266C162.156 3.11849 161.805 3.06641 161.401 3.06641C160.971 3.06641 160.6 3.125 160.288 3.24219C159.975 3.35938 159.715 3.51562 159.506 3.71094C159.298 3.91927 159.135 4.16016 159.018 4.43359C158.901 4.69401 158.823 4.98698 158.784 5.3125V5.50781V5.70312V10.9717C158.571 10.8739 158.342 10.7932 158.095 10.7297C157.652 10.5995 157.151 10.5344 156.591 10.5344C156.147 10.5402 155.732 10.5866 155.346 10.6736V5.68359C155.346 5.24089 155.294 4.85026 155.19 4.51172C155.099 4.17318 154.949 3.89323 154.741 3.67188C154.545 3.46354 154.298 3.3138 153.999 3.22266C153.712 3.11849 153.374 3.06641 152.983 3.06641C152.553 3.06641 152.176 3.11849 151.85 3.22266C151.538 3.3138 151.271 3.45052 151.049 3.63281C150.88 3.77604 150.73 3.9388 150.6 4.12109C150.483 4.30339 150.385 4.4987 150.307 4.70703V10.925H149.032V12.7801H150.307V21.5234H146.87V0.390625ZM155.346 12.7801V21.5234H158.784V12.7801H155.346ZM163.842 12.7801V21.5234H167.28V12.7801H163.842ZM186.987 20.6836C185.594 21.5039 183.868 21.9141 181.811 21.9141C180.327 21.9141 178.959 21.6602 177.709 21.1523C176.472 20.6445 175.411 19.9349 174.526 19.0234C173.64 18.112 172.95 17.0312 172.456 15.7812C171.961 14.5312 171.713 13.1706 171.713 11.6992V10.8789C171.713 9.17318 171.987 7.64974 172.534 6.30859C173.081 4.95443 173.81 3.80859 174.721 2.87109C175.62 1.94661 176.642 1.23698 177.788 0.742188C178.946 0.247396 180.131 0 181.342 0C182.866 0 184.194 0.266927 185.327 0.800781C186.472 1.32161 187.423 2.04427 188.178 2.96875C188.933 3.90625 189.493 5.00651 189.858 6.26953C190.236 7.53255 190.424 8.89974 190.424 10.3711V11.9922H188.675C188.306 11.7459 187.911 11.5269 187.489 11.3352C186.356 10.8013 185.028 10.5344 183.505 10.5344C182.294 10.5344 181.109 10.7818 179.95 11.2766C179.481 11.4791 179.033 11.7177 178.605 11.9922H175.327V12.1289C175.418 13.1576 175.62 14.0625 175.932 14.8438C176.258 15.625 176.7 16.3151 177.26 16.9141C177.833 17.5521 178.523 18.0534 179.331 18.418C180.138 18.7826 181.03 18.9648 182.006 18.9648C183.295 18.9648 184.441 18.7044 185.444 18.1836C186.446 17.6628 187.28 16.9727 187.944 16.1133L190.151 17.832C189.448 18.8997 188.393 19.8503 186.987 20.6836ZM183.725 3.47656C183.061 3.13802 182.267 2.96875 181.342 2.96875C180.613 2.96875 179.923 3.10547 179.272 3.37891C178.621 3.63932 178.035 4.02344 177.514 4.53125C176.993 5.05208 176.551 5.6901 176.186 6.44531C175.834 7.1875 175.587 8.04688 175.444 9.02344H186.811V8.84766C186.811 8.19661 186.687 7.5 186.44 6.75781C186.193 6.0026 185.847 5.35156 185.405 4.80469C184.962 4.25781 184.402 3.8151 183.725 3.47656Z" fill="white"/>
<path fill-rule="evenodd" clip-rule="evenodd" d="M49.2795 12.7798H36.2881C36.4473 12.6309 36.6162 12.4878 36.7949 12.3506C37.5241 11.7907 38.39 11.348 39.3926 11.0225C40.4082 10.6969 41.5215 10.5342 42.7324 10.5342C44.0345 10.5342 45.2064 10.7035 46.248 11.042C47.2897 11.3805 48.1751 11.8493 48.9043 12.4482C49.0348 12.5554 49.1599 12.666 49.2795 12.7798ZM72.8007 12.7798H60.6823C61.4111 12.1542 62.2117 11.653 63.084 11.2764C64.2428 10.7816 65.4277 10.5342 66.6387 10.5342C68.1621 10.5342 69.4902 10.8011 70.623 11.335C71.4509 11.7112 72.1768 12.1929 72.8007 12.7798ZM144.892 12.7798H131.87C131.972 12.6872 132.077 12.5962 132.186 12.5068C132.902 11.9209 133.774 11.4456 134.803 11.0811C135.844 10.7165 137.023 10.5342 138.338 10.5342C139.536 10.5342 140.649 10.6839 141.678 10.9834C142.706 11.2699 143.598 11.7061 144.354 12.292C144.543 12.4452 144.723 12.6078 144.892 12.7798ZM192.918 12.7798H180.799C181.528 12.1542 182.329 11.653 183.201 11.2764C184.36 10.7816 185.545 10.5342 186.756 10.5342C188.279 10.5342 189.607 10.8011 190.74 11.335C191.568 11.7112 192.294 12.1929 192.918 12.7798ZM171.999 12.7798H163.741C163.92 12.4879 164.131 12.2146 164.373 11.96C164.62 11.6995 164.887 11.4717 165.174 11.2764C165.538 11.055 165.942 10.8792 166.385 10.749C166.84 10.6188 167.335 10.5472 167.869 10.5342C168.598 10.5342 169.256 10.6449 169.842 10.8662C170.428 11.0745 170.923 11.387 171.326 11.8037C171.587 12.0795 171.811 12.4049 171.999 12.7798ZM163.72 12.7798C163.578 12.4623 163.405 12.176 163.201 11.9209C163.006 11.6605 162.785 11.4391 162.537 11.2568C162.199 11.0225 161.801 10.8467 161.346 10.7295C160.903 10.5993 160.402 10.5342 159.842 10.5342C158.852 10.5472 158.006 10.762 157.303 11.1787C156.656 11.5694 156.123 12.1031 155.705 12.7798H163.72ZM155.616 12.7798H152.283V10.9248H155.525L155.616 12.7798ZM121.506 12.7798H110.39C110.749 12.4272 111.127 12.1214 111.521 11.8623C112.146 11.4456 112.824 11.1266 113.553 10.9053C114.295 10.6709 115.076 10.5472 115.896 10.5342C117.003 10.5342 118.006 10.6904 118.904 11.0029C119.816 11.3154 120.59 11.8037 121.229 12.4678C121.324 12.5677 121.417 12.6717 121.506 12.7798ZM109.211 12.7798H105.818V10.9248H109.061L109.211 12.7798ZM99.1135 12.7798H89.7974C90.3267 12.3035 90.9014 11.8935 91.5215 11.5498C92.7324 10.8727 94.1061 10.5342 95.6426 10.5342C96.3066 10.5342 96.9967 10.5798 97.7129 10.6709C98.4421 10.762 98.9889 10.8857 99.3535 11.042L99.1135 12.7798ZM88.3621 12.7798H84.8223V10.9248H88.2598L88.3621 12.7798ZM26.9316 12.7798H23.2988V10.9248H26.9316V12.7798ZM13.4551 12.7798H9.8418V10.9248H13.4551V12.7798Z" fill="white"/>
<path fill-rule="evenodd" clip-rule="evenodd" d="M17.0898 21.5234H13.8086L13.5938 18.6133C12.8906 19.6549 12.0117 20.4688 10.957 21.0547C9.90234 21.6276 8.6849 21.9141 7.30469 21.9141C6.19792 21.9141 5.19531 21.7448 4.29688 21.4062C3.39844 21.0547 2.63021 20.5143 1.99219 19.7852C1.35417 19.056 0.859375 18.1315 0.507812 17.0117C0.169271 15.8789 0 14.5247 0 12.9492V0.390625H3.61328V10.925H3.51562V12.7801H3.61328V12.9883C3.61328 14.1341 3.70443 15.0846 3.88672 15.8398C4.06901 16.5951 4.34245 17.194 4.70703 17.6367C5.07161 18.0924 5.51432 18.4115 6.03516 18.5938C6.56901 18.776 7.18099 18.8672 7.87109 18.8672C8.67839 18.8672 9.40104 18.776 10.0391 18.5938C10.6771 18.3984 11.2305 18.1315 11.6992 17.793C12.0898 17.5195 12.4284 17.194 12.7148 16.8164C13.0143 16.4258 13.2617 16.0026 13.457 15.5469V0.390625H17.0898V10.925H16.9727V12.7801H17.0898V21.5234ZM37.7539 16.875C37.8841 16.5755 37.9492 16.2565 37.9492 15.918C37.9492 15.4883 37.8646 15.1042 37.6953 14.7656C37.526 14.4141 37.2396 14.0951 36.8359 13.8086C36.4323 13.5221 35.8984 13.2617 35.2344 13.0273C35.0048 12.9418 34.7557 12.8594 34.4872 12.7801H40.6202C40.7609 12.9661 40.8862 13.1592 40.9961 13.3594C41.3737 14.0234 41.5625 14.7917 41.5625 15.6641C41.5625 16.6016 41.3477 17.4544 40.918 18.2227C40.5013 18.9909 39.9154 19.6484 39.1602 20.1953C38.4049 20.7422 37.5 21.1654 36.4453 21.4648C35.3906 21.7643 34.2383 21.9141 32.9883 21.9141C31.556 21.9141 30.2799 21.7253 29.1602 21.3477C28.0404 20.957 27.0964 20.4427 26.3281 19.8047C25.5469 19.1797 24.9479 18.4505 24.5312 17.6172C24.1276 16.7839 23.9258 15.918 23.9258 15.0195H27.5391C27.5911 15.7617 27.7865 16.3867 28.125 16.8945C28.4766 17.4023 28.9128 17.8125 29.4336 18.125C29.9414 18.4375 30.5078 18.6589 31.1328 18.7891C31.7578 18.9193 32.3763 18.9844 32.9883 18.9844C33.9518 18.9844 34.7917 18.8737 35.5078 18.6523C36.224 18.418 36.7839 18.099 37.1875 17.6953C37.4349 17.4479 37.6237 17.1745 37.7539 16.875ZM37.4473 10.5725C37.2383 10.489 37.0215 10.4088 36.7969 10.332C35.7682 9.96745 34.6029 9.64844 33.3008 9.375C32.3112 9.17969 31.4909 8.97786 30.8398 8.76953C30.2018 8.5612 29.694 8.32682 29.3164 8.06641C28.9258 7.80599 28.6523 7.51302 28.4961 7.1875C28.3398 6.86198 28.2617 6.49089 28.2617 6.07422C28.2617 5.67057 28.3594 5.27995 28.5547 4.90234C28.75 4.52474 29.043 4.19271 29.4336 3.90625C29.8112 3.61979 30.2865 3.39193 30.8594 3.22266C31.4453 3.05339 32.1224 2.96875 32.8906 2.96875C33.6328 2.96875 34.2969 3.07292 34.8828 3.28125C35.4818 3.48958 35.9896 3.76302 36.4062 4.10156C36.8229 4.4401 37.1484 4.83073 37.3828 5.27344C37.6172 5.70312 37.7344 6.14583 37.7344 6.60156H41.3477C41.3477 5.67708 41.1458 4.81771 40.7422 4.02344C40.3516 3.21615 39.7917 2.51302 39.0625 1.91406C38.3333 1.3151 37.4479 0.846354 36.4062 0.507812C35.3646 0.169271 34.1927 0 32.8906 0C31.6797 0 30.5664 0.16276 29.5508 0.488281C28.5482 0.813802 27.6823 1.25651 26.9531 1.81641C26.224 2.3763 25.6576 3.03385 25.2539 3.78906C24.8503 4.53125 24.6484 5.33203 24.6484 6.19141C24.6484 7.0638 24.8438 7.83203 25.2344 8.49609C25.625 9.14714 26.1784 9.71354 26.8945 10.1953C27.5977 10.6901 28.444 11.1133 29.4336 11.4648C29.9402 11.6425 30.4734 11.8068 31.0333 11.9579C31.6334 11.5797 32.3111 11.2679 33.0664 11.0227C34.082 10.6972 35.1953 10.5344 36.4062 10.5344C36.7631 10.5344 37.1101 10.5471 37.4473 10.5725ZM62.4414 20.6836C61.0482 21.5039 59.3229 21.9141 57.2656 21.9141C55.7812 21.9141 54.4141 21.6602 53.1641 21.1523C51.9271 20.6445 50.8659 19.9349 49.9805 19.0234C49.0951 18.112 48.4049 17.0312 47.9102 15.7812C47.4154 14.5312 47.168 13.1706 47.168 11.6992V10.8789C47.168 9.17318 47.4414 7.64974 47.9883 6.30859C48.5352 4.95443 49.2643 3.80859 50.1758 2.87109C51.0742 1.94661 52.0964 1.23698 53.2422 0.742188C54.401 0.247396 55.5859 0 56.7969 0C58.3203 0 59.6484 0.266927 60.7812 0.800781C61.9271 1.32161 62.8776 2.04427 63.6328 2.96875C64.388 3.90625 64.9479 5.00651 65.3125 6.26953C65.6901 7.53255 65.8789 8.89974 65.8789 10.3711V11.9922H65.4825C65.1138 11.7459 64.7185 11.5269 64.2969 11.3352C63.1641 10.8013 61.8359 10.5344 60.3125 10.5344C59.1016 10.5344 57.9167 10.7818 56.7578 11.2766C56.2888 11.4791 55.8405 11.7177 55.4129 11.9922H50.7812V12.1289C50.8724 13.1576 51.0742 14.0625 51.3867 14.8438C51.7122 15.625 52.1549 16.3151 52.7148 16.9141C53.2878 17.5521 53.9779 18.0534 54.7852 18.418C55.5924 18.7826 56.4844 18.9648 57.4609 18.9648C58.75 18.9648 59.8958 18.7044 60.8984 18.1836C61.901 17.6628 62.7344 16.9727 63.3984 16.1133L65.6055 17.832C64.9023 18.8997 63.8477 19.8503 62.4414 20.6836ZM59.1797 3.47656C58.5156 3.13802 57.7214 2.96875 56.7969 2.96875C56.0677 2.96875 55.3776 3.10547 54.7266 3.37891C54.0755 3.63932 53.4896 4.02344 52.9688 4.53125C52.4479 5.05208 52.0052 5.6901 51.6406 6.44531C51.2891 7.1875 51.0417 8.04688 50.8984 9.02344H62.2656V8.84766C62.2656 8.19661 62.1419 7.5 61.8945 6.75781C61.6471 6.0026 61.3021 5.35156 60.8594 4.80469C60.4167 4.25781 59.8568 3.8151 59.1797 3.47656ZM81.6797 1.01562C82.8906 0.338542 84.2643 0 85.8008 0C86.4648 0 87.1549 0.0455729 87.8711 0.136719C88.6003 0.227865 89.1471 0.351562 89.5117 0.507812L89.0234 4.04297C88.3203 3.88672 87.6497 3.77604 87.0117 3.71094C86.3867 3.63281 85.7292 3.59375 85.0391 3.59375C84.1536 3.59375 83.3529 3.70443 82.6367 3.92578C81.9206 4.13411 81.2956 4.44661 80.7617 4.86328C80.2799 5.22786 79.8568 5.67708 79.4922 6.21094C79.1406 6.73177 78.8477 7.31771 78.6133 7.96875V10.925H78.4961V12.7801H78.6133V21.5234H74.9805V0.390625H78.418L78.5742 3.22266L78.5938 3.75C79.4531 2.59115 80.4818 1.67969 81.6797 1.01562ZM99.5898 21.5234H95.9766V0.390625H99.2188L99.4727 3.51562C99.7852 3.07292 100.124 2.66927 100.488 2.30469C100.866 1.92708 101.263 1.60156 101.68 1.32812C102.305 0.911458 102.982 0.592448 103.711 0.371094C104.453 0.136719 105.234 0.0130208 106.055 0C107.161 0 108.164 0.15625 109.062 0.46875C109.974 0.78125 110.749 1.26953 111.387 1.93359C112.025 2.59766 112.513 3.44401 112.852 4.47266C113.203 5.48828 113.379 6.69922 113.379 8.10547V11.3407C113.125 11.2116 112.858 11.0991 112.578 11.0032C111.733 10.7091 110.795 10.5534 109.766 10.536V8.18359C109.766 7.24609 109.661 6.45182 109.453 5.80078C109.245 5.14974 108.939 4.6224 108.535 4.21875C108.118 3.8151 107.611 3.52214 107.012 3.33984C106.426 3.15755 105.749 3.06641 104.98 3.06641C104.316 3.06641 103.698 3.16406 103.125 3.35938C102.552 3.54167 102.025 3.79557 101.543 4.12109C101.152 4.40755 100.788 4.73958 100.449 5.11719C100.124 5.49479 99.8372 5.91146 99.5898 6.36719V10.925H99.4922V12.7801H99.5898V21.5234ZM109.766 12.7801V21.5234H113.379V12.7801H109.766ZM137.656 21.5234H133.887C133.743 21.25 133.626 20.9115 133.535 20.5078C133.457 20.0911 133.398 19.6615 133.359 19.2188C132.995 19.5833 132.585 19.9284 132.129 20.2539C131.686 20.5794 131.198 20.8659 130.664 21.1133C130.117 21.3607 129.538 21.556 128.926 21.6992C128.314 21.8424 127.663 21.9141 126.973 21.9141C125.853 21.9141 124.837 21.7513 123.926 21.4258C123.027 21.1003 122.266 20.6576 121.641 20.0977C121.003 19.5508 120.508 18.8997 120.156 18.1445C119.818 17.3763 119.648 16.5495 119.648 15.6641C119.648 14.5052 119.876 13.4896 120.332 12.6172C120.801 11.7448 121.458 11.0156 122.305 10.4297C123.151 9.85677 124.167 9.42708 125.352 9.14062C126.549 8.85417 127.884 8.71094 129.355 8.71094H133.301V7.05078C133.301 6.41276 133.184 5.83984 132.949 5.33203C132.715 4.82422 132.383 4.38802 131.953 4.02344C131.523 3.67188 130.996 3.39844 130.371 3.20312C129.759 3.00781 129.069 2.91016 128.301 2.91016C127.585 2.91016 126.94 3.0013 126.367 3.18359C125.807 3.36589 125.332 3.60677 124.941 3.90625C124.551 4.20573 124.245 4.5638 124.023 4.98047C123.815 5.38411 123.711 5.80729 123.711 6.25H120.078C120.091 5.48177 120.286 4.72656 120.664 3.98438C121.055 3.24219 121.615 2.57161 122.344 1.97266C123.06 1.38672 123.932 0.911458 124.961 0.546875C126.003 0.182292 127.181 0 128.496 0C129.694 0 130.807 0.14974 131.836 0.449219C132.865 0.735677 133.757 1.17188 134.512 1.75781C135.254 2.35677 135.84 3.09896 136.27 3.98438C136.699 4.86979 136.914 5.90495 136.914 7.08984V11.5867C136.434 11.341 135.913 11.14 135.352 10.9836C134.323 10.6841 133.21 10.5344 132.012 10.5344C130.697 10.5344 129.518 10.7167 128.477 11.0813C128.184 11.1849 127.905 11.2974 127.638 11.4188C127.295 11.4677 126.969 11.5286 126.66 11.6016C125.736 11.8099 125 12.1354 124.453 12.5781C124.062 12.8906 123.763 13.2617 123.555 13.6914C123.359 14.1211 123.262 14.6094 123.262 15.1562C123.262 15.6771 123.346 16.1589 123.516 16.6016C123.698 17.0443 123.965 17.4219 124.316 17.7344C124.668 18.0599 125.111 18.3138 125.645 18.4961C126.178 18.6784 126.797 18.7695 127.5 18.7695C128.203 18.7695 128.861 18.6784 129.473 18.4961C130.085 18.3138 130.645 18.0729 131.152 17.7734C131.647 17.474 132.077 17.1354 132.441 16.7578C132.806 16.3672 133.092 15.9635 133.301 15.5469V12.7801H136.914V16.9141C136.914 17.6172 136.979 18.3659 137.109 19.1602C137.24 19.9414 137.422 20.625 137.656 21.2109V21.5234ZM142.441 0.390625H145.684L145.781 2.38281C146.211 1.64062 146.771 1.0612 147.461 0.644531C148.164 0.227865 149.01 0.0130208 150 0C150.56 0 151.061 0.0651042 151.504 0.195312C151.96 0.3125 152.357 0.488281 152.695 0.722656C152.943 0.904948 153.164 1.1263 153.359 1.38672C153.568 1.64714 153.743 1.9401 153.887 2.26562C154.069 1.96615 154.284 1.6862 154.531 1.42578C154.779 1.16536 155.046 0.9375 155.332 0.742188C155.697 0.520833 156.1 0.345052 156.543 0.214844C156.999 0.0846354 157.493 0.0130208 158.027 0C158.757 0 159.414 0.110677 160 0.332031C160.586 0.540365 161.081 0.852865 161.484 1.26953C161.927 1.73828 162.266 2.35026 162.5 3.10547C162.734 3.84766 162.852 4.72656 162.852 5.74219V10.6697C162.445 10.5795 162.008 10.5344 161.543 10.5344C161.009 10.5474 160.514 10.619 160.059 10.7493C159.834 10.8154 159.619 10.8933 159.414 10.983V5.70312C159.414 5.26042 159.362 4.86979 159.258 4.53125C159.154 4.19271 159.004 3.91276 158.809 3.69141C158.6 3.48307 158.34 3.32682 158.027 3.22266C157.728 3.11849 157.376 3.06641 156.973 3.06641C156.543 3.06641 156.172 3.125 155.859 3.24219C155.547 3.35938 155.286 3.51562 155.078 3.71094C154.87 3.91927 154.707 4.16016 154.59 4.43359C154.473 4.69401 154.395 4.98698 154.355 5.3125V5.50781V5.70312V10.5891C154.092 10.5526 153.812 10.5344 153.516 10.5344C152.526 10.5474 151.68 10.7623 150.977 11.1789C150.957 11.1908 150.937 11.2028 150.918 11.2149V5.68359C150.918 5.24089 150.866 4.85026 150.762 4.51172C150.671 4.17318 150.521 3.89323 150.312 3.67188C150.117 3.46354 149.87 3.3138 149.57 3.22266C149.284 3.11849 148.945 3.06641 148.555 3.06641C148.125 3.06641 147.747 3.11849 147.422 3.22266C147.109 3.3138 146.842 3.45052 146.621 3.63281C146.452 3.77604 146.302 3.9388 146.172 4.12109C146.055 4.30339 145.957 4.4987 145.879 4.70703V21.5234H142.441V0.390625ZM150.918 12.7801V21.5234H154.355V12.7801H150.918ZM159.414 12.7801V21.5234H162.852V12.7801H159.414ZM182.559 20.6836C181.165 21.5039 179.44 21.9141 177.383 21.9141C175.898 21.9141 174.531 21.6602 173.281 21.1523C172.044 20.6445 170.983 19.9349 170.098 19.0234C169.212 18.112 168.522 17.0312 168.027 15.7812C167.533 14.5312 167.285 13.1706 167.285 11.6992V10.8789C167.285 9.17318 167.559 7.64974 168.105 6.30859C168.652 4.95443 169.382 3.80859 170.293 2.87109C171.191 1.94661 172.214 1.23698 173.359 0.742188C174.518 0.247396 175.703 0 176.914 0C178.438 0 179.766 0.266927 180.898 0.800781C182.044 1.32161 182.995 2.04427 183.75 2.96875C184.505 3.90625 185.065 5.00651 185.43 6.26953C185.807 7.53255 185.996 8.89974 185.996 10.3711V11.9922H185.6C185.231 11.7459 184.836 11.5269 184.414 11.3352C183.281 10.8013 181.953 10.5344 180.43 10.5344C179.219 10.5344 178.034 10.7818 176.875 11.2766C176.406 11.4791 175.958 11.7177 175.53 11.9922H170.898V12.1289C170.99 13.1576 171.191 14.0625 171.504 14.8438C171.829 15.625 172.272 16.3151 172.832 16.9141C173.405 17.5521 174.095 18.0534 174.902 18.418C175.71 18.7826 176.602 18.9648 177.578 18.9648C178.867 18.9648 180.013 18.7044 181.016 18.1836C182.018 17.6628 182.852 16.9727 183.516 16.1133L185.723 17.832C185.02 18.8997 183.965 19.8503 182.559 20.6836ZM179.297 3.47656C178.633 3.13802 177.839 2.96875 176.914 2.96875C176.185 2.96875 175.495 3.10547 174.844 3.37891C174.193 3.63932 173.607 4.02344 173.086 4.53125C172.565 5.05208 172.122 5.6901 171.758 6.44531C171.406 7.1875 171.159 8.04688 171.016 9.02344H182.383V8.84766C182.383 8.19661 182.259 7.5 182.012 6.75781C181.764 6.0026 181.419 5.35156 180.977 4.80469C180.534 4.25781 179.974 3.8151 179.297 3.47656Z" fill="white"/>
<path fill-rule="evenodd" clip-rule="evenodd" d="M53.7073 12.7798H40.7159C40.875 12.6309 41.044 12.4878 41.2227 12.3506C41.9518 11.7907 42.8177 11.348 43.8203 11.0225C44.8359 10.6969 45.9492 10.5342 47.1602 10.5342C48.4622 10.5342 49.6341 10.7035 50.6758 11.042C51.7174 11.3805 52.6029 11.8493 53.332 12.4482C53.4625 12.5554 53.5876 12.666 53.7073 12.7798ZM77.2284 12.7798H65.11C65.8389 12.1542 66.6395 11.653 67.5117 11.2764C68.6706 10.7816 69.8555 10.5342 71.0664 10.5342C72.5898 10.5342 73.918 10.8011 75.0508 11.335C75.8786 11.7112 76.6045 12.1929 77.2284 12.7798ZM149.32 12.7798H136.298C136.399 12.6872 136.504 12.5962 136.613 12.5068C137.329 11.9209 138.202 11.4456 139.23 11.0811C140.272 10.7165 141.451 10.5342 142.766 10.5342C143.964 10.5342 145.077 10.6839 146.105 10.9834C147.134 11.2699 148.026 11.7061 148.781 12.292C148.971 12.4452 149.151 12.6078 149.32 12.7798ZM197.346 12.7798H185.227C185.956 12.1542 186.757 11.653 187.629 11.2764C188.788 10.7816 189.973 10.5342 191.184 10.5342C192.707 10.5342 194.035 10.8011 195.168 11.335C195.996 11.7112 196.722 12.1929 197.346 12.7798ZM176.427 12.7798H168.168C168.348 12.4879 168.559 12.2146 168.801 11.96C169.048 11.6995 169.315 11.4717 169.602 11.2764C169.966 11.055 170.37 10.8792 170.812 10.749C171.268 10.6188 171.763 10.5472 172.297 10.5342C173.026 10.5342 173.684 10.6449 174.27 10.8662C174.855 11.0745 175.35 11.387 175.754 11.8037C176.014 12.0795 176.239 12.4049 176.427 12.7798ZM168.147 12.7798C168.006 12.4623 167.833 12.176 167.629 11.9209C167.434 11.6605 167.212 11.4391 166.965 11.2568C166.626 11.0225 166.229 10.8467 165.773 10.7295C165.331 10.5993 164.829 10.5342 164.27 10.5342C163.28 10.5472 162.434 10.762 161.73 11.1787C161.083 11.5694 160.551 12.1031 160.133 12.7798H168.147ZM160.044 12.7798H156.711V10.9248H159.953L160.044 12.7798ZM125.934 12.7798H114.817C115.177 12.4272 115.554 12.1214 115.949 11.8623C116.574 11.4456 117.251 11.1266 117.98 10.9053C118.723 10.6709 119.504 10.5472 120.324 10.5342C121.431 10.5342 122.434 10.6904 123.332 11.0029C124.243 11.3154 125.018 11.8037 125.656 12.4678C125.752 12.5677 125.845 12.6717 125.934 12.7798ZM113.639 12.7798H110.246V10.9248H113.488L113.639 12.7798ZM103.541 12.7798H94.2251C94.7545 12.3035 95.3292 11.8935 95.9492 11.5498C97.1602 10.8727 98.5339 10.5342 100.07 10.5342C100.734 10.5342 101.424 10.5798 102.141 10.6709C102.87 10.762 103.417 10.8857 103.781 11.042L103.541 12.7798ZM92.7898 12.7798H89.25V10.9248H92.6875L92.7898 12.7798ZM31.3594 12.7798H27.7266V10.9248H31.3594V12.7798ZM17.8828 12.7798H14.2695V10.9248H17.8828V12.7798Z" fill="#B34FFF" style="mix-blend-mode:multiply"/>
<path fill-rule="evenodd" clip-rule="evenodd" d="M21.5176 21.5234H18.2363L18.0215 18.6133C17.3184 19.6549 16.4395 20.4688 15.3848 21.0547C14.3301 21.6276 13.1126 21.9141 11.7324 21.9141C10.6257 21.9141 9.62305 21.7448 8.72461 21.4062C7.82617 21.0547 7.05794 20.5143 6.41992 19.7852C5.7819 19.056 5.28711 18.1315 4.93555 17.0117C4.59701 15.8789 4.42773 14.5247 4.42773 12.9492V0.390625H8.04102V10.925H6.59033V12.7801H8.04102V12.9883C8.04102 14.1341 8.13216 15.0846 8.31445 15.8398C8.49674 16.5951 8.77018 17.194 9.13477 17.6367C9.49935 18.0924 9.94206 18.4115 10.4629 18.5938C10.9967 18.776 11.6087 18.8672 12.2988 18.8672C13.1061 18.8672 13.8288 18.776 14.4668 18.5938C15.1048 18.3984 15.6582 18.1315 16.127 17.793C16.5176 17.5195 16.8561 17.194 17.1426 16.8164C17.4421 16.4258 17.6895 16.0026 17.8848 15.5469V0.390625H21.5176V10.925H20.0474V12.7801H21.5176V21.5234ZM42.1816 16.875C42.3118 16.5755 42.377 16.2565 42.377 15.918C42.377 15.4883 42.2923 15.1042 42.123 14.7656C41.9538 14.4141 41.6673 14.0951 41.2637 13.8086C40.86 13.5221 40.3262 13.2617 39.6621 13.0273C39.4325 12.9418 39.1834 12.8594 38.9149 12.7801H45.0479C45.1886 12.9661 45.3139 13.1592 45.4238 13.3594C45.8014 14.0234 45.9902 14.7917 45.9902 15.6641C45.9902 16.6016 45.7754 17.4544 45.3457 18.2227C44.929 18.9909 44.3431 19.6484 43.5879 20.1953C42.8327 20.7422 41.9277 21.1654 40.873 21.4648C39.8184 21.7643 38.666 21.9141 37.416 21.9141C35.9837 21.9141 34.7077 21.7253 33.5879 21.3477C32.4681 20.957 31.5241 20.4427 30.7559 19.8047C29.9746 19.1797 29.3757 18.4505 28.959 17.6172C28.5553 16.7839 28.3535 15.918 28.3535 15.0195H31.9668C32.0189 15.7617 32.2142 16.3867 32.5527 16.8945C32.9043 17.4023 33.3405 17.8125 33.8613 18.125C34.3691 18.4375 34.9355 18.6589 35.5605 18.7891C36.1855 18.9193 36.804 18.9844 37.416 18.9844C38.3796 18.9844 39.2194 18.8737 39.9355 18.6523C40.6517 18.418 41.2116 18.099 41.6152 17.6953C41.8626 17.4479 42.0514 17.1745 42.1816 16.875ZM42.7551 10.9674C42.2928 10.7346 41.7827 10.5228 41.2246 10.332C40.196 9.96745 39.0306 9.64844 37.7285 9.375C36.7389 9.17969 35.9186 8.97786 35.2676 8.76953C34.6296 8.5612 34.1217 8.32682 33.7441 8.06641C33.3535 7.80599 33.0801 7.51302 32.9238 7.1875C32.7676 6.86198 32.6895 6.49089 32.6895 6.07422C32.6895 5.67057 32.7871 5.27995 32.9824 4.90234C33.1777 4.52474 33.4707 4.19271 33.8613 3.90625C34.2389 3.61979 34.7142 3.39193 35.2871 3.22266C35.873 3.05339 36.5501 2.96875 37.3184 2.96875C38.0605 2.96875 38.7246 3.07292 39.3105 3.28125C39.9095 3.48958 40.4173 3.76302 40.834 4.10156C41.2507 4.4401 41.5762 4.83073 41.8105 5.27344C42.0449 5.70312 42.1621 6.14583 42.1621 6.60156H45.7754C45.7754 5.67708 45.5736 4.81771 45.1699 4.02344C44.7793 3.21615 44.2194 2.51302 43.4902 1.91406C42.7611 1.3151 41.8757 0.846354 40.834 0.507812C39.7923 0.169271 38.6204 0 37.3184 0C36.1074 0 34.9941 0.16276 33.9785 0.488281C32.9759 0.813802 32.11 1.25651 31.3809 1.81641C30.6517 2.3763 30.0853 3.03385 29.6816 3.78906C29.278 4.53125 29.0762 5.33203 29.0762 6.19141C29.0762 7.0638 29.2715 7.83203 29.6621 8.49609C30.0527 9.14714 30.6061 9.71354 31.3223 10.1953C32.0254 10.6901 32.8717 11.1133 33.8613 11.4648C34.0879 11.5443 34.3197 11.6211 34.5569 11.6952C35.0404 11.4328 35.5684 11.2086 36.1411 11.0227C37.1567 10.6972 38.27 10.5344 39.481 10.5344C40.6834 10.5344 41.7747 10.6788 42.7551 10.9674ZM66.8691 20.6836C65.4759 21.5039 63.7507 21.9141 61.6934 21.9141C60.209 21.9141 58.8418 21.6602 57.5918 21.1523C56.3548 20.6445 55.2936 19.9349 54.4082 19.0234C53.5228 18.112 52.8327 17.0312 52.3379 15.7812C51.8431 14.5312 51.5957 13.1706 51.5957 11.6992V10.8789C51.5957 9.17318 51.8691 7.64974 52.416 6.30859C52.9629 4.95443 53.6921 3.80859 54.6035 2.87109C55.502 1.94661 56.5241 1.23698 57.6699 0.742188C58.8288 0.247396 60.0137 0 61.2246 0C62.748 0 64.0762 0.266927 65.209 0.800781C66.3548 1.32161 67.3053 2.04427 68.0605 2.96875C68.8158 3.90625 69.3756 5.00651 69.7402 6.26953C70.1178 7.53255 70.3066 8.89974 70.3066 10.3711V11.9922H68.5572C68.1885 11.7459 67.7933 11.5269 67.3716 11.3352C66.2388 10.8013 64.9106 10.5344 63.3872 10.5344C62.1763 10.5344 60.9914 10.7818 59.8325 11.2766C59.3635 11.4791 58.9152 11.7177 58.4876 11.9922H55.209V12.1289C55.3001 13.1576 55.502 14.0625 55.8145 14.8438C56.14 15.625 56.5827 16.3151 57.1426 16.9141C57.7155 17.5521 58.4056 18.0534 59.2129 18.418C60.0202 18.7826 60.9121 18.9648 61.8887 18.9648C63.1777 18.9648 64.3236 18.7044 65.3262 18.1836C66.3288 17.6628 67.1621 16.9727 67.8262 16.1133L70.0332 17.832C69.3301 18.8997 68.2754 19.8503 66.8691 20.6836ZM63.6074 3.47656C62.9434 3.13802 62.1491 2.96875 61.2246 2.96875C60.4954 2.96875 59.8053 3.10547 59.1543 3.37891C58.5033 3.63932 57.9173 4.02344 57.3965 4.53125C56.8757 5.05208 56.4329 5.6901 56.0684 6.44531C55.7168 7.1875 55.4694 8.04688 55.3262 9.02344H66.6934V8.84766C66.6934 8.19661 66.5697 7.5 66.3223 6.75781C66.0749 6.0026 65.7298 5.35156 65.2871 4.80469C64.8444 4.25781 64.2845 3.8151 63.6074 3.47656ZM86.1074 1.01562C87.3184 0.338542 88.6921 0 90.2285 0C90.8926 0 91.5827 0.0455729 92.2988 0.136719C93.028 0.227865 93.5749 0.351562 93.9395 0.507812L93.4512 4.04297C92.748 3.88672 92.0775 3.77604 91.4395 3.71094C90.8145 3.63281 90.1569 3.59375 89.4668 3.59375C88.5814 3.59375 87.7806 3.70443 87.0645 3.92578C86.3483 4.13411 85.7233 4.44661 85.1895 4.86328C84.7077 5.22786 84.2845 5.67708 83.9199 6.21094C83.5684 6.73177 83.2754 7.31771 83.041 7.96875V10.925H81.5708V12.7801H83.041V21.5234H79.4082V0.390625H82.8457L83.002 3.22266L83.0215 3.75C83.8809 2.59115 84.9095 1.67969 86.1074 1.01562ZM104.018 21.5234H100.404V0.390625H103.646L103.9 3.51562C104.213 3.07292 104.551 2.66927 104.916 2.30469C105.294 1.92708 105.691 1.60156 106.107 1.32812C106.732 0.911458 107.41 0.592448 108.139 0.371094C108.881 0.136719 109.662 0.0130208 110.482 0C111.589 0 112.592 0.15625 113.49 0.46875C114.402 0.78125 115.176 1.26953 115.814 1.93359C116.452 2.59766 116.941 3.44401 117.279 4.47266C117.631 5.48828 117.807 6.69922 117.807 8.10547V12.2979C117.203 11.7199 116.485 11.2883 115.653 11.0032C115.194 10.8434 114.707 10.7245 114.193 10.6464V8.18359C114.193 7.24609 114.089 6.45182 113.881 5.80078C113.673 5.14974 113.367 4.6224 112.963 4.21875C112.546 3.8151 112.038 3.52214 111.439 3.33984C110.854 3.15755 110.176 3.06641 109.408 3.06641C108.744 3.06641 108.126 3.16406 107.553 3.35938C106.98 3.54167 106.452 3.79557 105.971 4.12109C105.58 4.40755 105.215 4.73958 104.877 5.11719C104.551 5.49479 104.265 5.91146 104.018 6.36719V10.925H102.567V12.7801H104.018V21.5234ZM114.193 12.7801V21.5234H117.807V12.7801H114.193ZM142.084 21.5234H138.314C138.171 21.25 138.054 20.9115 137.963 20.5078C137.885 20.0911 137.826 19.6615 137.787 19.2188C137.423 19.5833 137.012 19.9284 136.557 20.2539C136.114 20.5794 135.626 20.8659 135.092 21.1133C134.545 21.3607 133.965 21.556 133.354 21.6992C132.742 21.8424 132.09 21.9141 131.4 21.9141C130.281 21.9141 129.265 21.7513 128.354 21.4258C127.455 21.1003 126.693 20.6576 126.068 20.0977C125.43 19.5508 124.936 18.8997 124.584 18.1445C124.245 17.3763 124.076 16.5495 124.076 15.6641C124.076 14.5052 124.304 13.4896 124.76 12.6172C125.229 11.7448 125.886 11.0156 126.732 10.4297C127.579 9.85677 128.594 9.42708 129.779 9.14062C130.977 8.85417 132.312 8.71094 133.783 8.71094H137.729V7.05078C137.729 6.41276 137.611 5.83984 137.377 5.33203C137.143 4.82422 136.811 4.38802 136.381 4.02344C135.951 3.67188 135.424 3.39844 134.799 3.20312C134.187 3.00781 133.497 2.91016 132.729 2.91016C132.012 2.91016 131.368 3.0013 130.795 3.18359C130.235 3.36589 129.76 3.60677 129.369 3.90625C128.979 4.20573 128.673 4.5638 128.451 4.98047C128.243 5.38411 128.139 5.80729 128.139 6.25H124.506C124.519 5.48177 124.714 4.72656 125.092 3.98438C125.482 3.24219 126.042 2.57161 126.771 1.97266C127.488 1.38672 128.36 0.911458 129.389 0.546875C130.43 0.182292 131.609 0 132.924 0C134.122 0 135.235 0.14974 136.264 0.449219C137.292 0.735677 138.184 1.17188 138.939 1.75781C139.682 2.35677 140.268 3.09896 140.697 3.98438C141.127 4.86979 141.342 5.90495 141.342 7.08984V12.4955C141.264 12.426 141.184 12.3582 141.102 12.2922C140.347 11.7063 139.455 11.2701 138.426 10.9836C137.398 10.6841 136.284 10.5344 135.086 10.5344C133.771 10.5344 132.593 10.7167 131.551 11.0813C130.523 11.4459 129.65 11.9211 128.934 12.5071C128.825 12.5965 128.72 12.6875 128.619 12.7801H128.65C128.37 13.047 128.148 13.3508 127.982 13.6914C127.787 14.1211 127.689 14.6094 127.689 15.1562C127.689 15.6771 127.774 16.1589 127.943 16.6016C128.126 17.0443 128.393 17.4219 128.744 17.7344C129.096 18.0599 129.538 18.3138 130.072 18.4961C130.606 18.6784 131.225 18.7695 131.928 18.7695C132.631 18.7695 133.288 18.6784 133.9 18.4961C134.512 18.3138 135.072 18.0729 135.58 17.7734C136.075 17.474 136.505 17.1354 136.869 16.7578C137.234 16.3672 137.52 15.9635 137.729 15.5469V12.7801H141.342V16.9141C141.342 17.6172 141.407 18.3659 141.537 19.1602C141.667 19.9414 141.85 20.625 142.084 21.2109V21.5234ZM146.869 0.390625H150.111L150.209 2.38281C150.639 1.64062 151.199 1.0612 151.889 0.644531C152.592 0.227865 153.438 0.0130208 154.428 0C154.988 0 155.489 0.0651042 155.932 0.195312C156.387 0.3125 156.785 0.488281 157.123 0.722656C157.37 0.904948 157.592 1.1263 157.787 1.38672C157.995 1.64714 158.171 1.9401 158.314 2.26562C158.497 1.96615 158.712 1.6862 158.959 1.42578C159.206 1.16536 159.473 0.9375 159.76 0.742188C160.124 0.520833 160.528 0.345052 160.971 0.214844C161.426 0.0846354 161.921 0.0130208 162.455 0C163.184 0 163.842 0.110677 164.428 0.332031C165.014 0.540365 165.508 0.852865 165.912 1.26953C166.355 1.73828 166.693 2.35026 166.928 3.10547C167.162 3.84766 167.279 4.72656 167.279 5.74219V11.1834C167.066 11.0595 166.836 10.9538 166.59 10.8664C166.004 10.6451 165.347 10.5344 164.618 10.5344C164.349 10.541 164.091 10.5623 163.842 10.5985V5.70312C163.842 5.26042 163.79 4.86979 163.686 4.53125C163.581 4.19271 163.432 3.91276 163.236 3.69141C163.028 3.48307 162.768 3.32682 162.455 3.22266C162.156 3.11849 161.804 3.06641 161.4 3.06641C160.971 3.06641 160.6 3.125 160.287 3.24219C159.975 3.35938 159.714 3.51562 159.506 3.71094C159.298 3.91927 159.135 4.16016 159.018 4.43359C158.9 4.69401 158.822 4.98698 158.783 5.3125V5.50781V5.70312V10.9717C158.571 10.8739 158.341 10.7932 158.094 10.7297C157.652 10.5995 157.15 10.5344 156.59 10.5344C156.147 10.5402 155.732 10.5866 155.346 10.6736V5.68359C155.346 5.24089 155.294 4.85026 155.189 4.51172C155.098 4.17318 154.949 3.89323 154.74 3.67188C154.545 3.46354 154.298 3.3138 153.998 3.22266C153.712 3.11849 153.373 3.06641 152.982 3.06641C152.553 3.06641 152.175 3.11849 151.85 3.22266C151.537 3.3138 151.27 3.45052 151.049 3.63281C150.88 3.77604 150.73 3.9388 150.6 4.12109C150.482 4.30339 150.385 4.4987 150.307 4.70703V10.925H149.032V12.7801H150.307V21.5234H146.869V0.390625ZM155.346 12.7801V21.5234H158.783V12.7801H155.346ZM163.842 12.7801V21.5234H167.279V12.7801H163.842ZM186.986 20.6836C185.593 21.5039 183.868 21.9141 181.811 21.9141C180.326 21.9141 178.959 21.6602 177.709 21.1523C176.472 20.6445 175.411 19.9349 174.525 19.0234C173.64 18.112 172.95 17.0312 172.455 15.7812C171.96 14.5312 171.713 13.1706 171.713 11.6992V10.8789C171.713 9.17318 171.986 7.64974 172.533 6.30859C173.08 4.95443 173.809 3.80859 174.721 2.87109C175.619 1.94661 176.641 1.23698 177.787 0.742188C178.946 0.247396 180.131 0 181.342 0C182.865 0 184.193 0.266927 185.326 0.800781C186.472 1.32161 187.423 2.04427 188.178 2.96875C188.933 3.90625 189.493 5.00651 189.857 6.26953C190.235 7.53255 190.424 8.89974 190.424 10.3711V11.9922H188.674C188.306 11.7459 187.91 11.5269 187.489 11.3352C186.356 10.8013 185.028 10.5344 183.504 10.5344C182.293 10.5344 181.109 10.7818 179.95 11.2766C179.481 11.4791 179.032 11.7177 178.605 11.9922H175.326V12.1289C175.417 13.1576 175.619 14.0625 175.932 14.8438C176.257 15.625 176.7 16.3151 177.26 16.9141C177.833 17.5521 178.523 18.0534 179.33 18.418C180.137 18.7826 181.029 18.9648 182.006 18.9648C183.295 18.9648 184.441 18.7044 185.443 18.1836C186.446 17.6628 187.279 16.9727 187.943 16.1133L190.15 17.832C189.447 18.8997 188.393 19.8503 186.986 20.6836ZM183.725 3.47656C183.061 3.13802 182.266 2.96875 181.342 2.96875C180.613 2.96875 179.923 3.10547 179.271 3.37891C178.62 3.63932 178.035 4.02344 177.514 4.53125C176.993 5.05208 176.55 5.6901 176.186 6.44531C175.834 7.1875 175.587 8.04688 175.443 9.02344H186.811V8.84766C186.811 8.19661 186.687 7.5 186.439 6.75781C186.192 6.0026 185.847 5.35156 185.404 4.80469C184.962 4.25781 184.402 3.8151 183.725 3.47656Z" fill="#B34FFF" style="mix-blend-mode:multiply"/>
<path fill-rule="evenodd" clip-rule="evenodd" d="M49.2795 12.7798H36.2881C36.4473 12.6309 36.6162 12.4878 36.7949 12.3506C37.5241 11.7907 38.39 11.348 39.3926 11.0225C40.4082 10.6969 41.5215 10.5342 42.7324 10.5342C44.0345 10.5342 45.2064 10.7035 46.248 11.042C47.2897 11.3805 48.1751 11.8493 48.9043 12.4482C49.0348 12.5554 49.1599 12.666 49.2795 12.7798ZM72.8007 12.7798H60.6823C61.4111 12.1542 62.2117 11.653 63.084 11.2764C64.2428 10.7816 65.4277 10.5342 66.6387 10.5342C68.1621 10.5342 69.4902 10.8011 70.623 11.335C71.4509 11.7112 72.1768 12.1929 72.8007 12.7798ZM144.892 12.7798H131.87C131.972 12.6872 132.077 12.5962 132.186 12.5068C132.902 11.9209 133.774 11.4456 134.803 11.0811C135.844 10.7165 137.023 10.5342 138.338 10.5342C139.536 10.5342 140.649 10.6839 141.678 10.9834C142.706 11.2699 143.598 11.7061 144.354 12.292C144.543 12.4452 144.723 12.6078 144.892 12.7798ZM192.918 12.7798H180.799C181.528 12.1542 182.329 11.653 183.201 11.2764C184.36 10.7816 185.545 10.5342 186.756 10.5342C188.279 10.5342 189.607 10.8011 190.74 11.335C191.568 11.7112 192.294 12.1929 192.918 12.7798ZM171.999 12.7798H163.741C163.92 12.4879 164.131 12.2146 164.373 11.96C164.62 11.6995 164.887 11.4717 165.174 11.2764C165.538 11.055 165.942 10.8792 166.385 10.749C166.84 10.6188 167.335 10.5472 167.869 10.5342C168.598 10.5342 169.256 10.6449 169.842 10.8662C170.428 11.0745 170.923 11.387 171.326 11.8037C171.587 12.0795 171.811 12.4049 171.999 12.7798ZM163.72 12.7798C163.578 12.4623 163.405 12.176 163.201 11.9209C163.006 11.6605 162.785 11.4391 162.537 11.2568C162.199 11.0225 161.801 10.8467 161.346 10.7295C160.903 10.5993 160.402 10.5342 159.842 10.5342C158.852 10.5472 158.006 10.762 157.303 11.1787C156.656 11.5694 156.123 12.1031 155.705 12.7798H163.72ZM155.616 12.7798H152.283V10.9248H155.525L155.616 12.7798ZM121.506 12.7798H110.39C110.749 12.4272 111.127 12.1214 111.521 11.8623C112.146 11.4456 112.824 11.1266 113.553 10.9053C114.295 10.6709 115.076 10.5472 115.896 10.5342C117.003 10.5342 118.006 10.6904 118.904 11.0029C119.816 11.3154 120.59 11.8037 121.229 12.4678C121.324 12.5677 121.417 12.6717 121.506 12.7798ZM109.211 12.7798H105.818V10.9248H109.061L109.211 12.7798ZM99.1135 12.7798H89.7974C90.3267 12.3035 90.9014 11.8935 91.5215 11.5498C92.7324 10.8727 94.1061 10.5342 95.6426 10.5342C96.3066 10.5342 96.9967 10.5798 97.7129 10.6709C98.4421 10.762 98.9889 10.8857 99.3535 11.042L99.1135 12.7798ZM88.3621 12.7798H84.8223V10.9248H88.2598L88.3621 12.7798ZM26.9316 12.7798H23.2988V10.9248H26.9316V12.7798ZM13.4551 12.7798H9.8418V10.9248H13.4551V12.7798Z" fill="#5AFFBA" style="mix-blend-mode:multiply"/>
<path fill-rule="evenodd" clip-rule="evenodd" d="M17.0898 21.5234H13.8086L13.5938 18.6133C12.8906 19.6549 12.0117 20.4688 10.957 21.0547C9.90234 21.6276 8.6849 21.9141 7.30469 21.9141C6.19792 21.9141 5.19531 21.7448 4.29688 21.4062C3.39844 21.0547 2.63021 20.5143 1.99219 19.7852C1.35417 19.056 0.859375 18.1315 0.507812 17.0117C0.169271 15.8789 0 14.5247 0 12.9492V0.390625H3.61328V10.925H3.51562V12.7801H3.61328V12.9883C3.61328 14.1341 3.70443 15.0846 3.88672 15.8398C4.06901 16.5951 4.34245 17.194 4.70703 17.6367C5.07161 18.0924 5.51432 18.4115 6.03516 18.5938C6.56901 18.776 7.18099 18.8672 7.87109 18.8672C8.67839 18.8672 9.40104 18.776 10.0391 18.5938C10.6771 18.3984 11.2305 18.1315 11.6992 17.793C12.0898 17.5195 12.4284 17.194 12.7148 16.8164C13.0143 16.4258 13.2617 16.0026 13.457 15.5469V0.390625H17.0898V10.925H16.9727V12.7801H17.0898V21.5234ZM37.7539 16.875C37.8841 16.5755 37.9492 16.2565 37.9492 15.918C37.9492 15.4883 37.8646 15.1042 37.6953 14.7656C37.526 14.4141 37.2396 14.0951 36.8359 13.8086C36.4323 13.5221 35.8984 13.2617 35.2344 13.0273C35.0048 12.9418 34.7557 12.8594 34.4872 12.7801H40.6202C40.7609 12.9661 40.8862 13.1592 40.9961 13.3594C41.3737 14.0234 41.5625 14.7917 41.5625 15.6641C41.5625 16.6016 41.3477 17.4544 40.918 18.2227C40.5013 18.9909 39.9154 19.6484 39.1602 20.1953C38.4049 20.7422 37.5 21.1654 36.4453 21.4648C35.3906 21.7643 34.2383 21.9141 32.9883 21.9141C31.556 21.9141 30.2799 21.7253 29.1602 21.3477C28.0404 20.957 27.0964 20.4427 26.3281 19.8047C25.5469 19.1797 24.9479 18.4505 24.5312 17.6172C24.1276 16.7839 23.9258 15.918 23.9258 15.0195H27.5391C27.5911 15.7617 27.7865 16.3867 28.125 16.8945C28.4766 17.4023 28.9128 17.8125 29.4336 18.125C29.9414 18.4375 30.5078 18.6589 31.1328 18.7891C31.7578 18.9193 32.3763 18.9844 32.9883 18.9844C33.9518 18.9844 34.7917 18.8737 35.5078 18.6523C36.224 18.418 36.7839 18.099 37.1875 17.6953C37.4349 17.4479 37.6237 17.1745 37.7539 16.875ZM37.4473 10.5725C37.2383 10.489 37.0215 10.4088 36.7969 10.332C35.7682 9.96745 34.6029 9.64844 33.3008 9.375C32.3112 9.17969 31.4909 8.97786 30.8398 8.76953C30.2018 8.5612 29.694 8.32682 29.3164 8.06641C28.9258 7.80599 28.6523 7.51302 28.4961 7.1875C28.3398 6.86198 28.2617 6.49089 28.2617 6.07422C28.2617 5.67057 28.3594 5.27995 28.5547 4.90234C28.75 4.52474 29.043 4.19271 29.4336 3.90625C29.8112 3.61979 30.2865 3.39193 30.8594 3.22266C31.4453 3.05339 32.1224 2.96875 32.8906 2.96875C33.6328 2.96875 34.2969 3.07292 34.8828 3.28125C35.4818 3.48958 35.9896 3.76302 36.4062 4.10156C36.8229 4.4401 37.1484 4.83073 37.3828 5.27344C37.6172 5.70312 37.7344 6.14583 37.7344 6.60156H41.3477C41.3477 5.67708 41.1458 4.81771 40.7422 4.02344C40.3516 3.21615 39.7917 2.51302 39.0625 1.91406C38.3333 1.3151 37.4479 0.846354 36.4062 0.507812C35.3646 0.169271 34.1927 0 32.8906 0C31.6797 0 30.5664 0.16276 29.5508 0.488281C28.5482 0.813802 27.6823 1.25651 26.9531 1.81641C26.224 2.3763 25.6576 3.03385 25.2539 3.78906C24.8503 4.53125 24.6484 5.33203 24.6484 6.19141C24.6484 7.0638 24.8438 7.83203 25.2344 8.49609C25.625 9.14714 26.1784 9.71354 26.8945 10.1953C27.5977 10.6901 28.444 11.1133 29.4336 11.4648C29.9402 11.6425 30.4734 11.8068 31.0333 11.9579C31.6334 11.5797 32.3111 11.2679 33.0664 11.0227C34.082 10.6972 35.1953 10.5344 36.4062 10.5344C36.7631 10.5344 37.1101 10.5471 37.4473 10.5725ZM62.4414 20.6836C61.0482 21.5039 59.3229 21.9141 57.2656 21.9141C55.7812 21.9141 54.4141 21.6602 53.1641 21.1523C51.9271 20.6445 50.8659 19.9349 49.9805 19.0234C49.0951 18.112 48.4049 17.0312 47.9102 15.7812C47.4154 14.5312 47.168 13.1706 47.168 11.6992V10.8789C47.168 9.17318 47.4414 7.64974 47.9883 6.30859C48.5352 4.95443 49.2643 3.80859 50.1758 2.87109C51.0742 1.94661 52.0964 1.23698 53.2422 0.742188C54.401 0.247396 55.5859 0 56.7969 0C58.3203 0 59.6484 0.266927 60.7812 0.800781C61.9271 1.32161 62.8776 2.04427 63.6328 2.96875C64.388 3.90625 64.9479 5.00651 65.3125 6.26953C65.6901 7.53255 65.8789 8.89974 65.8789 10.3711V11.9922H65.4825C65.1138 11.7459 64.7185 11.5269 64.2969 11.3352C63.1641 10.8013 61.8359 10.5344 60.3125 10.5344C59.1016 10.5344 57.9167 10.7818 56.7578 11.2766C56.2888 11.4791 55.8405 11.7177 55.4129 11.9922H50.7812V12.1289C50.8724 13.1576 51.0742 14.0625 51.3867 14.8438C51.7122 15.625 52.1549 16.3151 52.7148 16.9141C53.2878 17.5521 53.9779 18.0534 54.7852 18.418C55.5924 18.7826 56.4844 18.9648 57.4609 18.9648C58.75 18.9648 59.8958 18.7044 60.8984 18.1836C61.901 17.6628 62.7344 16.9727 63.3984 16.1133L65.6055 17.832C64.9023 18.8997 63.8477 19.8503 62.4414 20.6836ZM59.1797 3.47656C58.5156 3.13802 57.7214 2.96875 56.7969 2.96875C56.0677 2.96875 55.3776 3.10547 54.7266 3.37891C54.0755 3.63932 53.4896 4.02344 52.9688 4.53125C52.4479 5.05208 52.0052 5.6901 51.6406 6.44531C51.2891 7.1875 51.0417 8.04688 50.8984 9.02344H62.2656V8.84766C62.2656 8.19661 62.1419 7.5 61.8945 6.75781C61.6471 6.0026 61.3021 5.35156 60.8594 4.80469C60.4167 4.25781 59.8568 3.8151 59.1797 3.47656ZM81.6797 1.01562C82.8906 0.338542 84.2643 0 85.8008 0C86.4648 0 87.1549 0.0455729 87.8711 0.136719C88.6003 0.227865 89.1471 0.351562 89.5117 0.507812L89.0234 4.04297C88.3203 3.88672 87.6497 3.77604 87.0117 3.71094C86.3867 3.63281 85.7292 3.59375 85.0391 3.59375C84.1536 3.59375 83.3529 3.70443 82.6367 3.92578C81.9206 4.13411 81.2956 4.44661 80.7617 4.86328C80.2799 5.22786 79.8568 5.67708 79.4922 6.21094C79.1406 6.73177 78.8477 7.31771 78.6133 7.96875V10.925H78.4961V12.7801H78.6133V21.5234H74.9805V0.390625H78.418L78.5742 3.22266L78.5938 3.75C79.4531 2.59115 80.4818 1.67969 81.6797 1.01562ZM99.5898 21.5234H95.9766V0.390625H99.2188L99.4727 3.51562C99.7852 3.07292 100.124 2.66927 100.488 2.30469C100.866 1.92708 101.263 1.60156 101.68 1.32812C102.305 0.911458 102.982 0.592448 103.711 0.371094C104.453 0.136719 105.234 0.0130208 106.055 0C107.161 0 108.164 0.15625 109.062 0.46875C109.974 0.78125 110.749 1.26953 111.387 1.93359C112.025 2.59766 112.513 3.44401 112.852 4.47266C113.203 5.48828 113.379 6.69922 113.379 8.10547V11.3407C113.125 11.2116 112.858 11.0991 112.578 11.0032C111.733 10.7091 110.795 10.5534 109.766 10.536V8.18359C109.766 7.24609 109.661 6.45182 109.453 5.80078C109.245 5.14974 108.939 4.6224 108.535 4.21875C108.118 3.8151 107.611 3.52214 107.012 3.33984C106.426 3.15755 105.749 3.06641 104.98 3.06641C104.316 3.06641 103.698 3.16406 103.125 3.35938C102.552 3.54167 102.025 3.79557 101.543 4.12109C101.152 4.40755 100.788 4.73958 100.449 5.11719C100.124 5.49479 99.8372 5.91146 99.5898 6.36719V10.925H99.4922V12.7801H99.5898V21.5234ZM109.766 12.7801V21.5234H113.379V12.7801H109.766ZM137.656 21.5234H133.887C133.743 21.25 133.626 20.9115 133.535 20.5078C133.457 20.0911 133.398 19.6615 133.359 19.2188C132.995 19.5833 132.585 19.9284 132.129 20.2539C131.686 20.5794 131.198 20.8659 130.664 21.1133C130.117 21.3607 129.538 21.556 128.926 21.6992C128.314 21.8424 127.663 21.9141 126.973 21.9141C125.853 21.9141 124.837 21.7513 123.926 21.4258C123.027 21.1003 122.266 20.6576 121.641 20.0977C121.003 19.5508 120.508 18.8997 120.156 18.1445C119.818 17.3763 119.648 16.5495 119.648 15.6641C119.648 14.5052 119.876 13.4896 120.332 12.6172C120.801 11.7448 121.458 11.0156 122.305 10.4297C123.151 9.85677 124.167 9.42708 125.352 9.14062C126.549 8.85417 127.884 8.71094 129.355 8.71094H133.301V7.05078C133.301 6.41276 133.184 5.83984 132.949 5.33203C132.715 4.82422 132.383 4.38802 131.953 4.02344C131.523 3.67188 130.996 3.39844 130.371 3.20312C129.759 3.00781 129.069 2.91016 128.301 2.91016C127.585 2.91016 126.94 3.0013 126.367 3.18359C125.807 3.36589 125.332 3.60677 124.941 3.90625C124.551 4.20573 124.245 4.5638 124.023 4.98047C123.815 5.38411 123.711 5.80729 123.711 6.25H120.078C120.091 5.48177 120.286 4.72656 120.664 3.98438C121.055 3.24219 121.615 2.57161 122.344 1.97266C123.06 1.38672 123.932 0.911458 124.961 0.546875C126.003 0.182292 127.181 0 128.496 0C129.694 0 130.807 0.14974 131.836 0.449219C132.865 0.735677 133.757 1.17188 134.512 1.75781C135.254 2.35677 135.84 3.09896 136.27 3.98438C136.699 4.86979 136.914 5.90495 136.914 7.08984V11.5867C136.434 11.341 135.913 11.14 135.352 10.9836C134.323 10.6841 133.21 10.5344 132.012 10.5344C130.697 10.5344 129.518 10.7167 128.477 11.0813C128.184 11.1849 127.905 11.2974 127.638 11.4188C127.295 11.4677 126.969 11.5286 126.66 11.6016C125.736 11.8099 125 12.1354 124.453 12.5781C124.062 12.8906 123.763 13.2617 123.555 13.6914C123.359 14.1211 123.262 14.6094 123.262 15.1562C123.262 15.6771 123.346 16.1589 123.516 16.6016C123.698 17.0443 123.965 17.4219 124.316 17.7344C124.668 18.0599 125.111 18.3138 125.645 18.4961C126.178 18.6784 126.797 18.7695 127.5 18.7695C128.203 18.7695 128.861 18.6784 129.473 18.4961C130.085 18.3138 130.645 18.0729 131.152 17.7734C131.647 17.474 132.077 17.1354 132.441 16.7578C132.806 16.3672 133.092 15.9635 133.301 15.5469V12.7801H136.914V16.9141C136.914 17.6172 136.979 18.3659 137.109 19.1602C137.24 19.9414 137.422 20.625 137.656 21.2109V21.5234ZM142.441 0.390625H145.684L145.781 2.38281C146.211 1.64062 146.771 1.0612 147.461 0.644531C148.164 0.227865 149.01 0.0130208 150 0C150.56 0 151.061 0.0651042 151.504 0.195312C151.96 0.3125 152.357 0.488281 152.695 0.722656C152.943 0.904948 153.164 1.1263 153.359 1.38672C153.568 1.64714 153.743 1.9401 153.887 2.26562C154.069 1.96615 154.284 1.6862 154.531 1.42578C154.779 1.16536 155.046 0.9375 155.332 0.742188C155.697 0.520833 156.1 0.345052 156.543 0.214844C156.999 0.0846354 157.493 0.0130208 158.027 0C158.757 0 159.414 0.110677 160 0.332031C160.586 0.540365 161.081 0.852865 161.484 1.26953C161.927 1.73828 162.266 2.35026 162.5 3.10547C162.734 3.84766 162.852 4.72656 162.852 5.74219V10.6697C162.445 10.5795 162.008 10.5344 161.543 10.5344C161.009 10.5474 160.514 10.619 160.059 10.7493C159.834 10.8154 159.619 10.8933 159.414 10.983V5.70312C159.414 5.26042 159.362 4.86979 159.258 4.53125C159.154 4.19271 159.004 3.91276 158.809 3.69141C158.6 3.48307 158.34 3.32682 158.027 3.22266C157.728 3.11849 157.376 3.06641 156.973 3.06641C156.543 3.06641 156.172 3.125 155.859 3.24219C155.547 3.35938 155.286 3.51562 155.078 3.71094C154.87 3.91927 154.707 4.16016 154.59 4.43359C154.473 4.69401 154.395 4.98698 154.355 5.3125V5.50781V5.70312V10.5891C154.092 10.5526 153.812 10.5344 153.516 10.5344C152.526 10.5474 151.68 10.7623 150.977 11.1789C150.957 11.1908 150.937 11.2028 150.918 11.2149V5.68359C150.918 5.24089 150.866 4.85026 150.762 4.51172C150.671 4.17318 150.521 3.89323 150.312 3.67188C150.117 3.46354 149.87 3.3138 149.57 3.22266C149.284 3.11849 148.945 3.06641 148.555 3.06641C148.125 3.06641 147.747 3.11849 147.422 3.22266C147.109 3.3138 146.842 3.45052 146.621 3.63281C146.452 3.77604 146.302 3.9388 146.172 4.12109C146.055 4.30339 145.957 4.4987 145.879 4.70703V21.5234H142.441V0.390625ZM150.918 12.7801V21.5234H154.355V12.7801H150.918ZM159.414 12.7801V21.5234H162.852V12.7801H159.414ZM182.559 20.6836C181.165 21.5039 179.44 21.9141 177.383 21.9141C175.898 21.9141 174.531 21.6602 173.281 21.1523C172.044 20.6445 170.983 19.9349 170.098 19.0234C169.212 18.112 168.522 17.0312 168.027 15.7812C167.533 14.5312 167.285 13.1706 167.285 11.6992V10.8789C167.285 9.17318 167.559 7.64974 168.105 6.30859C168.652 4.95443 169.382 3.80859 170.293 2.87109C171.191 1.94661 172.214 1.23698 173.359 0.742188C174.518 0.247396 175.703 0 176.914 0C178.438 0 179.766 0.266927 180.898 0.800781C182.044 1.32161 182.995 2.04427 183.75 2.96875C184.505 3.90625 185.065 5.00651 185.43 6.26953C185.807 7.53255 185.996 8.89974 185.996 10.3711V11.9922H185.6C185.231 11.7459 184.836 11.5269 184.414 11.3352C183.281 10.8013 181.953 10.5344 180.43 10.5344C179.219 10.5344 178.034 10.7818 176.875 11.2766C176.406 11.4791 175.958 11.7177 175.53 11.9922H170.898V12.1289C170.99 13.1576 171.191 14.0625 171.504 14.8438C171.829 15.625 172.272 16.3151 172.832 16.9141C173.405 17.5521 174.095 18.0534 174.902 18.418C175.71 18.7826 176.602 18.9648 177.578 18.9648C178.867 18.9648 180.013 18.7044 181.016 18.1836C182.018 17.6628 182.852 16.9727 183.516 16.1133L185.723 17.832C185.02 18.8997 183.965 19.8503 182.559 20.6836ZM179.297 3.47656C178.633 3.13802 177.839 2.96875 176.914 2.96875C176.185 2.96875 175.495 3.10547 174.844 3.37891C174.193 3.63932 173.607 4.02344 173.086 4.53125C172.565 5.05208 172.122 5.6901 171.758 6.44531C171.406 7.1875 171.159 8.04688 171.016 9.02344H182.383V8.84766C182.383 8.19661 182.259 7.5 182.012 6.75781C181.764 6.0026 181.419 5.35156 180.977 4.80469C180.534 4.25781 179.974 3.8151 179.297 3.47656Z" fill="#5AFFBA" style="mix-blend-mode:multiply"/>
</svg>
