<svg width="314" height="44" viewBox="0 0 314 44" fill="none" xmlns="http://www.w3.org/2000/svg">
<path fill-rule="evenodd" clip-rule="evenodd" d="M20.3247 11H15.3247V14.6667H20.3247V11ZM309 14.6667V11H314V14.6667H309Z" fill="white"/>
<path fill-rule="evenodd" clip-rule="evenodd" d="M20.3247 22H15.3247V25.6667H20.3247V22ZM309 25.6667V22H314V25.6667H309Z" fill="white"/>
<path fill-rule="evenodd" clip-rule="evenodd" d="M20.3247 33H15.3247V36.6667H20.3247V33ZM309 36.6667V33H314V36.6667H309Z" fill="white"/>
<path fill-rule="evenodd" clip-rule="evenodd" d="M13.3193 5H301.995V11H306.995V5V0H301.995H13.3193H8.31934V5V11H13.3193V5ZM13.3193 14.6667H8.31934V22H13.3193V14.6667ZM8.31934 33V25.6667H13.3193V39H301.995V36.6667H303.054V33H301.995V25.6667H306.995V39V44H301.995H13.3193H8.31934V39V36.6667H9.3788V33H8.31934ZM306.995 22H301.995V14.6667H306.995V22Z" fill="white"/>
<path fill-rule="evenodd" clip-rule="evenodd" d="M12.0059 11H7.00586V14.6667H12.0059V11ZM300.681 14.6667V11H305.681V14.6667H300.681Z" fill="white"/>
<path fill-rule="evenodd" clip-rule="evenodd" d="M12.0059 22H7.00586V25.6667H12.0059V22ZM300.681 25.6667V22H305.681V25.6667H300.681Z" fill="white"/>
<path fill-rule="evenodd" clip-rule="evenodd" d="M12.0059 33H7.00586V36.6667H12.0059V33ZM300.681 36.6667V33H305.681V36.6667H300.681Z" fill="white"/>
<path fill-rule="evenodd" clip-rule="evenodd" d="M5 5H293.675V11H298.675V5V0H293.675H5H0V5V11H5V5ZM5 14.6667H0V22H5V14.6667ZM0 33V25.6667H5V33H0ZM0 36.6667V39V44H5H293.675H298.675V39V36.6667H293.675V39H5V36.6667H0ZM293.675 33H298.675V25.6667H293.675V33ZM298.675 22H293.675V14.6667H298.675V22Z" fill="white"/>
<path fill-rule="evenodd" clip-rule="evenodd" d="M20.3247 11H15.3247V14.6667H20.3247V11ZM309 14.6667V11H314V14.6667H309Z" fill="#B34FFF" style="mix-blend-mode:multiply"/>
<path fill-rule="evenodd" clip-rule="evenodd" d="M20.3247 22H15.3247V25.6667H20.3247V22ZM309 25.6667V22H314V25.6667H309Z" fill="#B34FFF" style="mix-blend-mode:multiply"/>
<path fill-rule="evenodd" clip-rule="evenodd" d="M20.3247 33H15.3247V36.6667H20.3247V33ZM309 36.6667V33H314V36.6667H309Z" fill="#B34FFF" style="mix-blend-mode:multiply"/>
<path fill-rule="evenodd" clip-rule="evenodd" d="M13.3193 5H301.995V11H306.995V5V0H301.995H13.3193H8.31934V5V11H13.3193V5ZM13.3193 14.6667H8.31934V22H13.3193V14.6667ZM8.31934 33V25.6667H13.3193V39H301.995V36.6667H303.054V33H301.995V25.6667H306.995V39V44H301.995H13.3193H8.31934V39V36.6667H9.3788V33H8.31934ZM306.995 22H301.995V14.6667H306.995V22Z" fill="#B34FFF" style="mix-blend-mode:multiply"/>
<path fill-rule="evenodd" clip-rule="evenodd" d="M12.0059 11H7.00586V14.6667H12.0059V11ZM300.681 14.6667V11H305.681V14.6667H300.681Z" fill="#5AFFBA" style="mix-blend-mode:multiply"/>
<path fill-rule="evenodd" clip-rule="evenodd" d="M12.0059 22H7.00586V25.6667H12.0059V22ZM300.681 25.6667V22H305.681V25.6667H300.681Z" fill="#5AFFBA" style="mix-blend-mode:multiply"/>
<path fill-rule="evenodd" clip-rule="evenodd" d="M12.0059 33H7.00586V36.6667H12.0059V33ZM300.681 36.6667V33H305.681V36.6667H300.681Z" fill="#5AFFBA" style="mix-blend-mode:multiply"/>
<path fill-rule="evenodd" clip-rule="evenodd" d="M5 5H293.675V11H298.675V5V0H293.675H5H0V5V11H5V5ZM5 14.6667H0V22H5V14.6667ZM0 33V25.6667H5V33H0ZM0 36.6667V39V44H5H293.675H298.675V39V36.6667H293.675V39H5V36.6667H0ZM293.675 33H298.675V25.6667H293.675V33ZM298.675 22H293.675V14.6667H298.675V22Z" fill="#5AFFBA" style="mix-blend-mode:multiply"/>
</svg>
