<svg width="234" height="59" viewBox="0 0 234 59" fill="none" xmlns="http://www.w3.org/2000/svg">
<path fill-rule="evenodd" clip-rule="evenodd" d="M38.3442 34.7192L32.6537 37.2408L0.449219 15.076L0.772217 8.86035L38.3442 34.7192Z" fill="white"/>
<path fill-rule="evenodd" clip-rule="evenodd" d="M5.03662 56.8614L6.00572 38.2142L22.1079 49.2966L5.03662 56.8614ZM27.7984 46.775L6.32872 31.9985L6.97482 19.567L35.4428 39.1601L41.1332 36.6385L7.29782 13.3513L7.94382 0.919922L56.2508 34.1671L27.7984 46.775Z" fill="white"/>
<path fill-rule="evenodd" clip-rule="evenodd" d="M41.1333 36.6387L35.4428 39.1603L3.23828 16.9955L3.56128 10.7798L41.1333 36.6387Z" fill="white"/>
<path fill-rule="evenodd" clip-rule="evenodd" d="M7.82568 58.7809L8.79478 40.1338L24.897 51.2162L7.82568 58.7809ZM30.5875 48.6946L9.11778 33.9181L9.76378 21.4865L38.2318 41.0796L43.9222 38.558L10.0868 15.2708L10.7328 2.83936L59.0398 36.0866L30.5875 48.6946Z" fill="white"/>
<g style="mix-blend-mode:multiply">
<path fill-rule="evenodd" clip-rule="evenodd" d="M38.3442 34.7192L32.6537 37.2408L0.449219 15.076L0.772217 8.86035L38.3442 34.7192Z" fill="#B34FFF"/>
</g>
<g style="mix-blend-mode:multiply">
<path fill-rule="evenodd" clip-rule="evenodd" d="M5.03662 56.8614L6.00572 38.2142L22.1079 49.2966L5.03662 56.8614ZM27.7984 46.775L6.32872 31.9985L6.97482 19.567L35.4428 39.1601L41.1332 36.6385L7.29782 13.3513L7.94382 0.919922L56.2508 34.1671L27.7984 46.775Z" fill="#B34FFF"/>
</g>
<g style="mix-blend-mode:multiply">
<path fill-rule="evenodd" clip-rule="evenodd" d="M41.1333 36.6387L35.4428 39.1603L3.23828 16.9955L3.56128 10.7798L41.1333 36.6387Z" fill="#5AFFBA"/>
</g>
<g style="mix-blend-mode:multiply">
<path fill-rule="evenodd" clip-rule="evenodd" d="M7.82568 58.7809L8.79478 40.1338L24.897 51.2162L7.82568 58.7809ZM30.5875 48.6946L9.11778 33.9181L9.76378 21.4865L38.2318 41.0796L43.9222 38.558L10.0868 15.2708L10.7328 2.83936L59.0398 36.0866L30.5875 48.6946Z" fill="#5AFFBA"/>
</g>
<path fill-rule="evenodd" clip-rule="evenodd" d="M137.17 29.54H131.57V26.1187H137.17V29.54ZM233.057 26.1187V29.54H227.457V26.1187H233.057ZM203.657 26.1187H209.257V29.54H203.657V26.1187ZM192.484 26.1187V29.54H186.884V29.1904H168.684V29.54H163.084V29.1904C163.084 28.0055 163.442 26.9816 164.157 26.1187H192.484ZM118.883 26.1187C119.643 27.0159 120.023 28.0398 120.023 29.1904V29.54H114.423V29.1904H96.2231V29.54H95.173L95.523 29.1904H90.623V26.1187H118.883Z" fill="white"/>
<path fill-rule="evenodd" clip-rule="evenodd" d="M137.17 39.8042H131.57V36.3828H137.17V39.8042ZM233.057 36.3828V39.8042H227.457V36.3828H233.057ZM203.657 36.3828H209.257V39.8042H203.657V36.3828ZM192.484 36.3828V39.8042H186.884V36.3828H192.484ZM163.084 36.3828V39.8042H168.684V36.3828H163.084ZM120.023 36.3828V39.8042H114.423V36.3828H120.023ZM90.623 39.8042V36.3828H96.2231V39.8042H90.623Z" fill="white"/>
<path fill-rule="evenodd" clip-rule="evenodd" d="M108.95 32.6C108.95 33.9067 108.46 35.05 107.48 36.03C107.354 36.1557 107.226 36.2734 107.095 36.383H106.875V36.5573C106.038 37.1858 105.096 37.5 104.05 37.5H88.6748V36.383H85.5668L89.3498 32.6H103.35V29.1905H108.95V32.6ZM85.1498 36.383V17.9H103.35V26.1189H108.95V17.9C108.95 16.5933 108.46 15.45 107.48 14.47C106.5 13.49 105.356 13 104.05 13H79.5498V17.9H84.4498L79.5498 22.8V47.3H85.1498V39.8044H83.0748V36.383H85.1498ZM144.997 47.3H120.497V13H126.097V36.383H124.022V39.8044H126.097V42.4H139.397V37.5H144.997V47.3ZM181.411 47.3H175.811V37.5H161.136V36.383H158.028L161.811 32.6H175.811V29.1905H181.411V36.383H179.336V39.8044H181.411V47.3ZM157.611 36.383V17.9H175.811V26.1189H181.411V13H156.911C155.557 13 154.391 13.49 153.411 14.47C152.477 15.4033 152.011 16.5467 152.011 17.9V47.3H157.611V39.8044H155.536V36.383H157.611ZM221.983 32.6C221.983 33.9533 221.493 35.12 220.513 36.1C220.414 36.1996 220.312 36.294 220.207 36.383H219.908V36.6185C219.099 37.2062 218.157 37.5 217.083 37.5H210.083V47.3H204.483V37.5H201.708V36.383H196.108V37.3224C195.323 37.1084 194.614 36.7009 193.983 36.1C193.05 35.12 192.583 33.9533 192.583 32.6V13H198.183V32.6H216.383V13H221.983V32.6Z" fill="white"/>
<path fill-rule="evenodd" clip-rule="evenodd" d="M131.621 29.54H126.021V26.1187H131.621V29.54ZM227.507 26.1187V29.54H221.907V26.1187H227.507ZM198.107 26.1187H203.707V29.54H198.107V26.1187ZM186.934 26.1187V29.54H181.334V29.1904H163.134V29.54H157.534V29.1904C157.534 28.0055 157.892 26.9816 158.607 26.1187H186.934ZM113.334 26.1187C114.093 27.0159 114.473 28.0398 114.473 29.1904V29.54H108.873V29.1904H90.6732V29.54H89.6242L89.9733 29.1904H85.0732V26.1187H113.334Z" fill="white"/>
<path fill-rule="evenodd" clip-rule="evenodd" d="M131.621 39.8042H126.021V36.3828H131.621V39.8042ZM227.507 36.3828V39.8042H221.907V36.3828H227.507ZM198.107 36.3828H203.707V39.8042H198.107V36.3828ZM186.934 36.3828V39.8042H181.334V36.3828H186.934ZM157.534 36.3828V39.8042H163.134V36.3828H157.534ZM114.473 36.3828V39.8042H108.873V36.3828H114.473ZM85.0732 39.8042V36.3828H90.6732V39.8042H85.0732Z" fill="white"/>
<path fill-rule="evenodd" clip-rule="evenodd" d="M103.4 32.6C103.4 33.9067 102.91 35.05 101.93 36.03C100.95 37.01 99.807 37.5 98.5 37.5H85.9V36.383H80.3V37.5H79.6V47.3H74V22.8L78.9 17.9H74V13H98.5C99.807 13 100.95 13.49 101.93 14.47C102.91 15.45 103.4 16.5933 103.4 17.9V26.1189H97.8V17.9H79.6V36.8L83.8 32.6H97.8V29.1905H103.4V32.6ZM139.447 47.3H114.947V13H120.547V42.4H133.847V37.5H139.447V47.3ZM175.861 47.3H170.261V37.5H158.361V36.383H152.761V37.5H152.061V47.3H146.461V17.9C146.461 16.5467 146.928 15.4033 147.861 14.47C148.841 13.49 150.008 13 151.361 13H175.861V26.1189H170.261V17.9H152.061V36.8L156.261 32.6H170.261V29.1905H175.861V47.3ZM216.434 32.6C216.434 33.9533 215.944 35.12 214.964 36.1C214.03 37.0333 212.887 37.5 211.534 37.5H204.534V47.3H198.934V39.8044V36.383H193.334V37.5H191.934C190.58 37.5 189.414 37.0333 188.434 36.1C187.5 35.12 187.034 33.9533 187.034 32.6V13H192.634V32.6H210.834V13H216.434V32.6Z" fill="white"/>
<g style="mix-blend-mode:multiply">
<path fill-rule="evenodd" clip-rule="evenodd" d="M137.17 29.54H131.57V26.1187H137.17V29.54ZM233.057 26.1187V29.54H227.457V26.1187H233.057ZM203.657 26.1187H209.257V29.54H203.657V26.1187ZM192.484 26.1187V29.54H186.884V29.1904H168.684V29.54H163.084V29.1904C163.084 28.0055 163.442 26.9816 164.157 26.1187H192.484ZM118.883 26.1187C119.643 27.0159 120.023 28.0398 120.023 29.1904V29.54H114.423V29.1904H96.2231V29.54H95.173L95.523 29.1904H90.623V26.1187H118.883Z" fill="#B34FFF"/>
</g>
<g style="mix-blend-mode:multiply">
<path fill-rule="evenodd" clip-rule="evenodd" d="M137.17 39.8042H131.57V36.3828H137.17V39.8042ZM233.057 36.3828V39.8042H227.457V36.3828H233.057ZM203.657 36.3828H209.257V39.8042H203.657V36.3828ZM192.484 36.3828V39.8042H186.884V36.3828H192.484ZM163.084 36.3828V39.8042H168.684V36.3828H163.084ZM120.023 36.3828V39.8042H114.423V36.3828H120.023ZM90.623 39.8042V36.3828H96.2231V39.8042H90.623Z" fill="#B34FFF"/>
</g>
<g style="mix-blend-mode:multiply">
<path fill-rule="evenodd" clip-rule="evenodd" d="M108.95 32.6C108.95 33.9067 108.46 35.05 107.48 36.03C107.354 36.1557 107.226 36.2734 107.095 36.383H106.875V36.5573C106.038 37.1858 105.096 37.5 104.05 37.5H88.6748V36.383H85.5668L89.3498 32.6H103.35V29.1905H108.95V32.6ZM85.1498 36.383V17.9H103.35V26.1189H108.95V17.9C108.95 16.5933 108.46 15.45 107.48 14.47C106.5 13.49 105.356 13 104.05 13H79.5498V17.9H84.4498L79.5498 22.8V47.3H85.1498V39.8044H83.0748V36.383H85.1498ZM144.997 47.3H120.497V13H126.097V36.383H124.022V39.8044H126.097V42.4H139.397V37.5H144.997V47.3ZM181.411 47.3H175.811V37.5H161.136V36.383H158.028L161.811 32.6H175.811V29.1905H181.411V36.383H179.336V39.8044H181.411V47.3ZM157.611 36.383V17.9H175.811V26.1189H181.411V13H156.911C155.557 13 154.391 13.49 153.411 14.47C152.477 15.4033 152.011 16.5467 152.011 17.9V47.3H157.611V39.8044H155.536V36.383H157.611ZM221.983 32.6C221.983 33.9533 221.493 35.12 220.513 36.1C220.414 36.1996 220.312 36.294 220.207 36.383H219.908V36.6185C219.099 37.2062 218.157 37.5 217.083 37.5H210.083V47.3H204.483V37.5H201.708V36.383H196.108V37.3224C195.323 37.1084 194.614 36.7009 193.983 36.1C193.05 35.12 192.583 33.9533 192.583 32.6V13H198.183V32.6H216.383V13H221.983V32.6Z" fill="#B34FFF"/>
</g>
<g style="mix-blend-mode:multiply">
<path fill-rule="evenodd" clip-rule="evenodd" d="M131.621 29.54H126.021V26.1187H131.621V29.54ZM227.507 26.1187V29.54H221.907V26.1187H227.507ZM198.107 26.1187H203.707V29.54H198.107V26.1187ZM186.934 26.1187V29.54H181.334V29.1904H163.134V29.54H157.534V29.1904C157.534 28.0055 157.892 26.9816 158.607 26.1187H186.934ZM113.334 26.1187C114.093 27.0159 114.473 28.0398 114.473 29.1904V29.54H108.873V29.1904H90.6732V29.54H89.6242L89.9733 29.1904H85.0732V26.1187H113.334Z" fill="#5AFFBA"/>
</g>
<g style="mix-blend-mode:multiply">
<path fill-rule="evenodd" clip-rule="evenodd" d="M131.621 39.8042H126.021V36.3828H131.621V39.8042ZM227.507 36.3828V39.8042H221.907V36.3828H227.507ZM198.107 36.3828H203.707V39.8042H198.107V36.3828ZM186.934 36.3828V39.8042H181.334V36.3828H186.934ZM157.534 36.3828V39.8042H163.134V36.3828H157.534ZM114.473 36.3828V39.8042H108.873V36.3828H114.473ZM85.0732 39.8042V36.3828H90.6732V39.8042H85.0732Z" fill="#5AFFBA"/>
</g>
<g style="mix-blend-mode:multiply">
<path fill-rule="evenodd" clip-rule="evenodd" d="M103.4 32.6C103.4 33.9067 102.91 35.05 101.93 36.03C100.95 37.01 99.807 37.5 98.5 37.5H85.9V36.383H80.3V37.5H79.6V47.3H74V22.8L78.9 17.9H74V13H98.5C99.807 13 100.95 13.49 101.93 14.47C102.91 15.45 103.4 16.5933 103.4 17.9V26.1189H97.8V17.9H79.6V36.8L83.8 32.6H97.8V29.1905H103.4V32.6ZM139.447 47.3H114.947V13H120.547V42.4H133.847V37.5H139.447V47.3ZM175.861 47.3H170.261V37.5H158.361V36.383H152.761V37.5H152.061V47.3H146.461V17.9C146.461 16.5467 146.928 15.4033 147.861 14.47C148.841 13.49 150.008 13 151.361 13H175.861V26.1189H170.261V17.9H152.061V36.8L156.261 32.6H170.261V29.1905H175.861V47.3ZM216.434 32.6C216.434 33.9533 215.944 35.12 214.964 36.1C214.03 37.0333 212.887 37.5 211.534 37.5H204.534V47.3H198.934V39.8044V36.383H193.334V37.5H191.934C190.58 37.5 189.414 37.0333 188.434 36.1C187.5 35.12 187.034 33.9533 187.034 32.6V13H192.634V32.6H210.834V13H216.434V32.6Z" fill="#5AFFBA"/>
</g>
</svg>
