<svg width="257" height="44" viewBox="0 0 257 44" fill="none" xmlns="http://www.w3.org/2000/svg">
<path fill-rule="evenodd" clip-rule="evenodd" d="M17.543 11H12.543V14.6667H17.543V11ZM252 14.6667V11H257V14.6667H252Z" fill="white"/>
<path fill-rule="evenodd" clip-rule="evenodd" d="M17.543 22H12.543V25.6667H17.543V22ZM252 25.6667V22H257V25.6667H252Z" fill="white"/>
<path fill-rule="evenodd" clip-rule="evenodd" d="M17.543 33H12.543V36.6667H17.543V33ZM252 36.6667V33H257V36.6667H252Z" fill="white"/>
<path fill-rule="evenodd" clip-rule="evenodd" d="M11.8091 5H246.266V11H251.266V5V0H246.266H11.8091H6.80908V5V11H11.8091V5ZM11.8091 14.6667H6.80908V22H11.8091V14.6667ZM6.80908 33V25.6667H11.8091V39H246.266V36.6667H248.041V33H246.266V25.6667H251.266V39V44H246.266H11.8091H6.80908V39V36.6667H8.58406V33H6.80908ZM251.266 22H246.266V14.6667H251.266V22Z" fill="white"/>
<path fill-rule="evenodd" clip-rule="evenodd" d="M10.7339 11H5.73389V14.6667H10.7339V11ZM245.191 14.6667V11H250.191V14.6667H245.191Z" fill="white"/>
<path fill-rule="evenodd" clip-rule="evenodd" d="M10.7339 22H5.73389V25.6667H10.7339V22ZM245.191 25.6667V22H250.191V25.6667H245.191Z" fill="white"/>
<path fill-rule="evenodd" clip-rule="evenodd" d="M10.7339 33H5.73389V36.6667H10.7339V33ZM245.191 36.6667V33H250.191V36.6667H245.191Z" fill="white"/>
<path fill-rule="evenodd" clip-rule="evenodd" d="M5 5H239.457V11H244.457V5V0H239.457H5H0V5V11H5V5ZM5 14.6667H0V22H5V14.6667ZM0 33V25.6667H5V33H0ZM0 36.6667V39V44H5H239.457H244.457V39V36.6667H239.457V39H5V36.6667H0ZM239.457 33H244.457V25.6667H239.457V33ZM244.457 22H239.457V14.6667H244.457V22Z" fill="white"/>
<path fill-rule="evenodd" clip-rule="evenodd" d="M17.543 11H12.543V14.6667H17.543V11ZM252 14.6667V11H257V14.6667H252Z" fill="#B34FFF" style="mix-blend-mode:multiply"/>
<path fill-rule="evenodd" clip-rule="evenodd" d="M17.543 22H12.543V25.6667H17.543V22ZM252 25.6667V22H257V25.6667H252Z" fill="#B34FFF" style="mix-blend-mode:multiply"/>
<path fill-rule="evenodd" clip-rule="evenodd" d="M17.543 33H12.543V36.6667H17.543V33ZM252 36.6667V33H257V36.6667H252Z" fill="#B34FFF" style="mix-blend-mode:multiply"/>
<path fill-rule="evenodd" clip-rule="evenodd" d="M11.8091 5H246.266V11H251.266V5V0H246.266H11.8091H6.80908V5V11H11.8091V5ZM11.8091 14.6667H6.80908V22H11.8091V14.6667ZM6.80908 33V25.6667H11.8091V39H246.266V36.6667H248.041V33H246.266V25.6667H251.266V39V44H246.266H11.8091H6.80908V39V36.6667H8.58406V33H6.80908ZM251.266 22H246.266V14.6667H251.266V22Z" fill="#B34FFF" style="mix-blend-mode:multiply"/>
<path fill-rule="evenodd" clip-rule="evenodd" d="M10.7339 11H5.73389V14.6667H10.7339V11ZM245.191 14.6667V11H250.191V14.6667H245.191Z" fill="#5AFFBA" style="mix-blend-mode:multiply"/>
<path fill-rule="evenodd" clip-rule="evenodd" d="M10.7339 22H5.73389V25.6667H10.7339V22ZM245.191 25.6667V22H250.191V25.6667H245.191Z" fill="#5AFFBA" style="mix-blend-mode:multiply"/>
<path fill-rule="evenodd" clip-rule="evenodd" d="M10.7339 33H5.73389V36.6667H10.7339V33ZM245.191 36.6667V33H250.191V36.6667H245.191Z" fill="#5AFFBA" style="mix-blend-mode:multiply"/>
<path fill-rule="evenodd" clip-rule="evenodd" d="M5 5H239.457V11H244.457V5V0H239.457H5H0V5V11H5V5ZM5 14.6667H0V22H5V14.6667ZM0 33V25.6667H5V33H0ZM0 36.6667V39V44H5H239.457H244.457V39V36.6667H239.457V39H5V36.6667H0ZM239.457 33H244.457V25.6667H239.457V33ZM244.457 22H239.457V14.6667H244.457V22Z" fill="#5AFFBA" style="mix-blend-mode:multiply"/>
<rect x="13" y="5" width="229" height="32" fill="#3F4FBA"/>
<path d="M53.207 19.207V12H51.0391V30H53.207V20.7891C53.3633 20.5391 53.5391 20.3125 53.7344 20.1094C53.9375 19.8984 54.1562 19.7148 54.3906 19.5586C54.6875 19.3555 55.0117 19.1992 55.3633 19.0898C55.7148 18.9805 56.0859 18.9258 56.4766 18.9258C56.9531 18.918 57.375 18.9844 57.7422 19.125C58.1094 19.2578 58.4141 19.4609 58.6562 19.7344C58.8828 19.9844 59.0547 20.3008 59.1719 20.6836C59.2891 21.0586 59.3477 21.4961 59.3477 21.9961V30H61.5156V22.0195C61.5156 21.168 61.4102 20.4336 61.1992 19.8164C60.9961 19.1914 60.7031 18.6758 60.3203 18.2695C59.9375 17.8633 59.4727 17.5664 58.9258 17.3789C58.3867 17.1836 57.7852 17.0859 57.1211 17.0859C56.6133 17.0938 56.1328 17.168 55.6797 17.3086C55.2344 17.4492 54.8242 17.6562 54.4492 17.9297C54.2148 18.0938 53.9922 18.2852 53.7812 18.5039C53.5703 18.7148 53.3789 18.9492 53.207 19.207ZM64.8438 23.543V23.8008C64.8438 24.7148 64.9766 25.5625 65.2422 26.3438C65.5078 27.125 65.8906 27.8047 66.3906 28.3828C66.8828 28.9609 67.4844 29.4141 68.1953 29.7422C68.9141 30.0703 69.7227 30.2344 70.6211 30.2344C71.5117 30.2344 72.3125 30.0703 73.0234 29.7422C73.7344 29.4141 74.3398 28.9609 74.8398 28.3828C75.332 27.8047 75.7109 27.125 75.9766 26.3438C76.2422 25.5625 76.375 24.7148 76.375 23.8008V23.543C76.375 22.6289 76.2422 21.7812 75.9766 21C75.7109 20.2109 75.332 19.5273 74.8398 18.9492C74.3398 18.3711 73.7305 17.918 73.0117 17.5898C72.3008 17.2539 71.4961 17.0859 70.5977 17.0859C69.707 17.0859 68.9062 17.2539 68.1953 17.5898C67.4844 17.918 66.8828 18.3711 66.3906 18.9492C65.8906 19.5273 65.5078 20.2109 65.2422 21C64.9766 21.7812 64.8438 22.6289 64.8438 23.543ZM67.0117 23.8008V23.543C67.0117 22.9258 67.0859 22.3359 67.2344 21.7734C67.3828 21.2031 67.6094 20.7031 67.9141 20.2734C68.2109 19.8438 68.582 19.5039 69.0273 19.2539C69.4727 18.9961 69.9961 18.8672 70.5977 18.8672C71.1992 18.8672 71.7227 18.9961 72.168 19.2539C72.6211 19.5039 73 19.8438 73.3047 20.2734C73.6016 20.7031 73.8242 21.2031 73.9727 21.7734C74.1289 22.3359 74.207 22.9258 74.207 23.543V23.8008C74.207 24.4258 74.1328 25.0234 73.9844 25.5938C73.8359 26.1562 73.6133 26.6523 73.3164 27.082C73.0117 27.5117 72.6328 27.8516 72.1797 28.1016C71.7344 28.3516 71.2148 28.4766 70.6211 28.4766C70.0195 28.4766 69.4922 28.3516 69.0391 28.1016C68.5859 27.8516 68.2109 27.5117 67.9141 27.082C67.6094 26.6523 67.3828 26.1562 67.2344 25.5938C67.0859 25.0234 67.0117 24.4258 67.0117 23.8008ZM81.0859 30H82.7969L84.7539 22.2305L85.0703 20.2617L85.3984 22.2305L87.3789 30H89.0898L91.7852 17.3203H89.8633L88.457 25.4062L88.1406 27.3984L87.8008 25.4062L85.7852 17.3203H84.3906L82.3633 25.4062L82.0469 27.2227L81.7891 25.4062L80.3125 17.3203H78.3906L81.0859 30ZM113.828 14.25H111.648V17.3203H108.32V18.9961H111.648V25.8867C111.648 26.668 111.75 27.3359 111.953 27.8906C112.164 28.4375 112.449 28.8828 112.809 29.2266C113.168 29.5781 113.59 29.8359 114.074 30C114.566 30.1562 115.094 30.2344 115.656 30.2344C115.992 30.2344 116.328 30.2188 116.664 30.1875C117.008 30.1562 117.332 30.1094 117.637 30.0469C117.941 29.9922 118.223 29.9258 118.48 29.8477C118.738 29.7617 118.957 29.6641 119.137 29.5547L118.832 28.0195C118.699 28.0508 118.527 28.0898 118.316 28.1367C118.113 28.1758 117.895 28.2148 117.66 28.2539C117.418 28.293 117.172 28.3281 116.922 28.3594C116.672 28.3828 116.43 28.3945 116.195 28.3945C115.875 28.3945 115.57 28.3555 115.281 28.2773C115 28.1992 114.75 28.0625 114.531 27.8672C114.312 27.6797 114.141 27.4258 114.016 27.1055C113.891 26.7852 113.828 26.3789 113.828 25.8867V18.9961H118.656V17.3203H113.828V14.25ZM122.5 23.543V23.8008C122.5 24.7148 122.633 25.5625 122.898 26.3438C123.164 27.125 123.547 27.8047 124.047 28.3828C124.539 28.9609 125.141 29.4141 125.852 29.7422C126.57 30.0703 127.379 30.2344 128.277 30.2344C129.168 30.2344 129.969 30.0703 130.68 29.7422C131.391 29.4141 131.996 28.9609 132.496 28.3828C132.988 27.8047 133.367 27.125 133.633 26.3438C133.898 25.5625 134.031 24.7148 134.031 23.8008V23.543C134.031 22.6289 133.898 21.7812 133.633 21C133.367 20.2109 132.988 19.5273 132.496 18.9492C131.996 18.3711 131.387 17.918 130.668 17.5898C129.957 17.2539 129.152 17.0859 128.254 17.0859C127.363 17.0859 126.562 17.2539 125.852 17.5898C125.141 17.918 124.539 18.3711 124.047 18.9492C123.547 19.5273 123.164 20.2109 122.898 21C122.633 21.7812 122.5 22.6289 122.5 23.543ZM124.668 23.8008V23.543C124.668 22.9258 124.742 22.3359 124.891 21.7734C125.039 21.2031 125.266 20.7031 125.57 20.2734C125.867 19.8438 126.238 19.5039 126.684 19.2539C127.129 18.9961 127.652 18.8672 128.254 18.8672C128.855 18.8672 129.379 18.9961 129.824 19.2539C130.277 19.5039 130.656 19.8438 130.961 20.2734C131.258 20.7031 131.48 21.2031 131.629 21.7734C131.785 22.3359 131.863 22.9258 131.863 23.543V23.8008C131.863 24.4258 131.789 25.0234 131.641 25.5938C131.492 26.1562 131.27 26.6523 130.973 27.082C130.668 27.5117 130.289 27.8516 129.836 28.1016C129.391 28.3516 128.871 28.4766 128.277 28.4766C127.676 28.4766 127.148 28.3516 126.695 28.1016C126.242 27.8516 125.867 27.5117 125.57 27.082C125.266 26.6523 125.039 26.1562 124.891 25.5938C124.742 25.0234 124.668 24.4258 124.668 23.8008ZM151.926 34.875H154.094V28.7812C154.25 28.9531 154.418 29.1133 154.598 29.2617C154.777 29.4023 154.969 29.5312 155.172 29.6484C155.508 29.8359 155.883 29.9805 156.297 30.082C156.719 30.1836 157.172 30.2344 157.656 30.2344C158.453 30.2344 159.16 30.0703 159.777 29.7422C160.402 29.4141 160.926 28.9609 161.348 28.3828C161.77 27.8047 162.09 27.125 162.309 26.3438C162.527 25.5547 162.637 24.707 162.637 23.8008V23.5547C162.637 22.6094 162.527 21.7422 162.309 20.9531C162.09 20.1562 161.77 19.4727 161.348 18.9023C160.926 18.332 160.402 17.8867 159.777 17.5664C159.152 17.2461 158.434 17.0859 157.621 17.0859C157.16 17.0859 156.727 17.1367 156.32 17.2383C155.922 17.332 155.559 17.4727 155.23 17.6602C154.996 17.7852 154.777 17.9375 154.574 18.1172C154.371 18.2891 154.184 18.4844 154.012 18.7031L153.906 17.3203H151.926V34.875ZM160.469 23.5547V23.8008C160.469 24.418 160.398 25.0078 160.258 25.5703C160.125 26.1328 159.918 26.6289 159.637 27.0586C159.355 27.4883 158.996 27.832 158.559 28.0898C158.121 28.3398 157.602 28.4648 157 28.4648C156.625 28.4648 156.281 28.418 155.969 28.3242C155.664 28.2305 155.387 28.1016 155.137 27.9375C154.918 27.7969 154.723 27.625 154.551 27.4219C154.379 27.2188 154.227 27 154.094 26.7656V20.6602C154.242 20.3945 154.414 20.1523 154.609 19.9336C154.805 19.7148 155.027 19.5312 155.277 19.3828C155.504 19.2344 155.758 19.1211 156.039 19.043C156.328 18.9648 156.641 18.9258 156.977 18.9258C157.586 18.9258 158.109 19.0508 158.547 19.3008C158.984 19.5508 159.348 19.8867 159.637 20.3086C159.918 20.7383 160.125 21.2344 160.258 21.7969C160.398 22.3516 160.469 22.9375 160.469 23.5547ZM166.691 12V13.8867H171.004V28.125H166.691V30H177.309V28.125H173.172V12H166.691ZM189.098 30H191.359V29.8125C191.219 29.4609 191.109 29.0508 191.031 28.582C190.953 28.1055 190.914 27.6562 190.914 27.2344V21.3398C190.914 20.6289 190.785 20.0078 190.527 19.4766C190.27 18.9453 189.918 18.5 189.473 18.1406C189.02 17.7891 188.484 17.5273 187.867 17.3555C187.25 17.1758 186.582 17.0859 185.863 17.0859C185.074 17.0859 184.367 17.1953 183.742 17.4141C183.125 17.6328 182.602 17.918 182.172 18.2695C181.734 18.6289 181.398 19.0312 181.164 19.4766C180.938 19.9219 180.82 20.375 180.812 20.8359H182.992C182.992 20.5703 183.055 20.3164 183.18 20.0742C183.312 19.8242 183.496 19.6094 183.73 19.4297C183.965 19.25 184.25 19.1055 184.586 18.9961C184.93 18.8867 185.316 18.832 185.746 18.832C186.207 18.832 186.621 18.8906 186.988 19.0078C187.363 19.125 187.68 19.2891 187.938 19.5C188.195 19.7188 188.395 19.9805 188.535 20.2852C188.676 20.5898 188.746 20.9336 188.746 21.3164V22.3125H186.379C185.496 22.3125 184.695 22.3984 183.977 22.5703C183.266 22.7422 182.656 23 182.148 23.3438C181.641 23.6953 181.246 24.1328 180.965 24.6562C180.691 25.1797 180.555 25.7891 180.555 26.4844C180.555 27.0156 180.656 27.5117 180.859 27.9727C181.07 28.4258 181.367 28.8164 181.75 29.1445C182.125 29.4805 182.582 29.7461 183.121 29.9414C183.668 30.1367 184.277 30.2344 184.949 30.2344C185.363 30.2344 185.754 30.1914 186.121 30.1055C186.488 30.0195 186.836 29.9023 187.164 29.7539C187.484 29.6055 187.777 29.4336 188.043 29.2383C188.316 29.043 188.562 28.8359 188.781 28.6172C188.805 28.8828 188.84 29.1406 188.887 29.3906C188.941 29.6328 189.012 29.8359 189.098 30ZM185.266 28.3477C184.844 28.3477 184.473 28.293 184.152 28.1836C183.832 28.0742 183.566 27.9219 183.355 27.7266C183.145 27.5391 182.984 27.3125 182.875 27.0469C182.773 26.7812 182.723 26.4922 182.723 26.1797C182.723 25.8516 182.781 25.5586 182.898 25.3008C183.023 25.043 183.203 24.8203 183.438 24.6328C183.766 24.3672 184.207 24.1719 184.762 24.0469C185.324 23.9141 185.98 23.8477 186.73 23.8477H188.746V26.4141C188.621 26.6641 188.449 26.9062 188.23 27.1406C188.012 27.3672 187.754 27.5703 187.457 27.75C187.152 27.9297 186.816 28.0742 186.449 28.1836C186.082 28.293 185.688 28.3477 185.266 28.3477ZM196.199 35.1211C196.77 35.1211 197.273 35.0156 197.711 34.8047C198.148 34.5938 198.531 34.332 198.859 34.0195C199.188 33.707 199.465 33.3672 199.691 33C199.926 32.6328 200.117 32.2852 200.266 31.957L206.699 17.3203H204.273L201.004 25.5469L200.406 27.0352L199.844 25.5L196.363 17.3203H193.938L199.398 29.4023L198.531 31.0898C198.453 31.2461 198.344 31.4453 198.203 31.6875C198.07 31.9297 197.91 32.1641 197.723 32.3906C197.527 32.6172 197.305 32.8125 197.055 32.9766C196.812 33.1406 196.543 33.2227 196.246 33.2227C196.137 33.2227 195.984 33.2148 195.789 33.1992C195.602 33.1914 195.41 33.1797 195.215 33.1641L194.863 34.9336C195.004 34.9648 195.211 35.0039 195.484 35.0508C195.758 35.0977 195.996 35.1211 196.199 35.1211Z" fill="white"/>
</svg>
