<svg width="558" height="60" viewBox="0 0 558 60" fill="none" xmlns="http://www.w3.org/2000/svg">
<path fill-rule="evenodd" clip-rule="evenodd" d="M46.3609 48.1767H31.4971C31.7655 48.0811 32.0369 47.9914 32.3114 47.9075C34.1864 47.3346 36.1656 47.0481 38.2489 47.0481C41.3413 47.0481 44.0452 47.4243 46.3609 48.1767ZM91.9934 48.1767H81.807L81.9208 47.8293H91.8818L91.9934 48.1767ZM202.233 48.1767H164.03V47.8293H202.233V48.1767ZM286.386 48.1767H271.489C271.848 48.0512 272.214 47.9354 272.585 47.8293C274.434 47.2825 276.413 47.009 278.522 47.009C281.453 47.009 284.074 47.3983 286.386 48.1767ZM346.374 48.1767H308.171V47.8293H346.374V48.1767ZM445.436 48.1767H399.577V47.8293H445.436V48.1767ZM490.515 48.1767H452.311V47.8293H490.515V48.1767ZM523.755 48.1767H499.733V47.8293H518.796C520.541 47.8293 522.194 47.9451 523.755 48.1767ZM393.093 48.1767H382.077L382.077 47.8293H393.093V48.1767ZM366.484 48.1767H355.28V47.8293H366.335L366.484 48.1767ZM153.991 48.1767H140.259L140.358 47.8293H153.991V48.1767ZM128.923 48.1767H115.202V47.8293H128.835L128.923 48.1767Z" fill="white"/>
<path fill-rule="evenodd" clip-rule="evenodd" d="M38.5837 59.9513H50.3997C51.1032 58.9236 51.878 58.0863 52.7242 57.4392C53.4013 56.9444 54.1304 56.5668 54.9117 56.3064C55.2768 56.1847 55.6475 56.0914 56.024 56.0266L40.6568 56.0266C40.1388 56.8162 39.656 57.6516 39.2086 58.533C38.9881 58.9928 38.7798 59.4655 38.5837 59.9513ZM74.7004 56.0266L59.157 56.0266C59.9384 56.1282 60.6457 56.2996 61.2789 56.5408C62.3987 56.9314 63.3231 57.5303 64.0523 58.3376C64.4703 58.8058 64.8292 59.3436 65.1291 59.9513H76.235C75.9717 59.0349 75.6608 58.1585 75.3023 57.322C75.1168 56.8767 74.9161 56.4449 74.7004 56.0266ZM114.589 59.9513H96.7609L98.0467 56.0266H113.328L114.589 59.9513ZM193.857 59.9513H182.841V56.0266H221.044V56.7751H193.857V59.9513ZM290.017 59.9513H278.553C279.113 58.5419 279.784 57.2337 280.568 56.0266L296.054 56.0266C295.661 56.0722 295.28 56.1394 294.912 56.2283C294.183 56.4106 293.505 56.684 292.88 57.0486C291.813 57.6736 290.901 58.572 290.146 59.7439C290.103 59.8123 290.059 59.8814 290.017 59.9513ZM316.632 59.9513H305.406C305.118 59.4126 304.784 58.9268 304.404 58.4939C303.623 57.6606 302.646 57.0356 301.474 56.6189C300.705 56.3217 299.83 56.1243 298.85 56.0266L314.931 56.0266C315.312 56.6962 315.657 57.4015 315.966 58.1423C316.211 58.7271 316.433 59.3301 316.632 59.9513ZM337.998 59.9513H326.982V56.0266H365.185V56.7751H337.998V59.9513ZM446.709 59.9513H435.693V56.7751H418.388V56.0266H464.248V56.7751H446.709V59.9513ZM482.138 59.9513H471.123V56.0266H509.326V56.7751H482.138V59.9513ZM556.068 56.0266C556.359 56.5147 556.625 57.0247 556.865 57.5564C557.215 58.3123 557.503 59.1106 557.73 59.9513H545.657C545.349 59.5431 544.996 59.1745 544.599 58.8455C543.792 58.1684 542.802 57.6475 541.63 57.283C540.459 56.9184 539.117 56.7361 537.607 56.7361H529.521V59.9513H518.544V56.0266L556.068 56.0266ZM411.904 56.0266V59.9513H400.875L400.879 56.0266H411.904ZM374.091 56.0266H388.67L390.358 59.9513H374.091V56.0266ZM172.802 56.0266V59.9513H155.69L156.817 56.0266H172.802ZM134.013 56.0266H149.714L150.704 59.9513H134.013V56.0266Z" fill="white"/>
<path fill-rule="evenodd" clip-rule="evenodd" d="M56.6953 51.0547L56.6562 28.6328H36.3047V36.8359H45.7188L45.6797 47.1484C45.3932 47.487 44.9635 47.8125 44.3906 48.125C43.8438 48.4115 43.2057 48.6719 42.4766 48.9062C41.7474 49.1406 40.9661 49.3229 40.1328 49.4531C39.2995 49.5833 38.4531 49.6484 37.5938 49.6484C36.1875 49.6224 34.9245 49.401 33.8047 48.9844C32.7109 48.5417 31.7474 47.9036 30.9141 47.0703C30.4193 46.5755 29.9635 46.0156 29.5469 45.3906C29.1562 44.7396 28.8047 44.0365 28.4922 43.2812C27.9974 41.9792 27.6068 40.4818 27.3203 38.7891C27.0599 37.0964 26.9297 35.2214 26.9297 33.1641V25.3516C26.9297 24.4306 26.9584 23.5465 27.0159 22.6994C26.4328 23.2433 25.887 23.8867 25.3785 24.6295H15.8823C15.8774 24.8943 15.875 25.1611 15.875 25.4297V33.1641C15.875 36.0026 16.1224 38.6328 16.6172 41.0547C17.138 43.4766 17.8932 45.651 18.8828 47.5781C19.7422 49.3229 20.7839 50.8724 22.0078 52.2266C23.2578 53.5807 24.638 54.7266 26.1484 55.6641C27.6849 56.5755 29.3646 57.2656 31.1875 57.7344C33.0365 58.2292 35.0026 58.4766 37.0859 58.4766C39.4818 58.4766 41.7214 58.2552 43.8047 57.8125C45.888 57.3698 47.776 56.7839 49.4688 56.0547C51.1354 55.3516 52.5807 54.5573 53.8047 53.6719C55.0286 52.7865 55.9922 51.9141 56.6953 51.0547ZM16.1495 20.7049H27.2145C27.4219 19.3288 27.7045 18.0782 28.0625 16.9531C28.5312 15.4688 29.1172 14.1797 29.8203 13.0859C30.5495 11.9922 31.3568 11.1068 32.2422 10.4297C32.9193 9.9349 33.6484 9.55729 34.4297 9.29688C35.2109 9.03646 36.0182 8.90625 36.8516 8.90625C38.388 8.90625 39.7031 9.11458 40.7969 9.53125C41.9167 9.92188 42.8411 10.5208 43.5703 11.3281C43.7514 11.531 43.9214 11.7469 44.0804 11.9759C45.5255 12.1634 46.8615 12.4564 48.0885 12.8551H44.6037C44.7887 13.219 44.952 13.6084 45.0938 14.0234C45.4844 15.0911 45.7708 16.3151 45.9531 17.6953H56.6562C56.3698 14.9609 55.7578 12.5 54.8203 10.3125C53.9089 8.125 52.6328 6.26302 50.9922 4.72656C49.3516 3.21615 47.3333 2.05729 44.9375 1.25C42.5677 0.442708 39.7812 0.0390625 36.5781 0.0390625C34.4948 0.0390625 32.5156 0.325521 30.6406 0.898438C28.7656 1.47135 27.0339 2.31771 25.4453 3.4375C24.0911 4.42708 22.8411 5.59896 21.6953 6.95312C20.5755 8.30729 19.5859 9.83073 18.7266 11.5234C17.8151 13.4245 17.112 15.5469 16.6172 17.8906C16.4233 18.7987 16.2674 19.7368 16.1495 20.7049ZM93.6094 45.8203L96.9297 57.6953H108.492L90.2109 0.820312H80.25L73.7356 20.7049H83.7386L85.2109 15.5469L86.6448 20.7049H88.3064L89.5679 24.6295H87.7358L91.0312 36.4844H79.2344L82.6183 24.6295H72.4499L61.6172 57.6953H73.1797L76.5391 45.8203H93.6094ZM127.164 0.820312H113.531V20.7049H123.24L123.141 15.3125L124.665 20.7049H124.693L124.926 21.6288L129.82 38.9453H135.25L139.576 24.6295H130.669L131.796 20.7049H132.181L130.2 12.8551H116.93V12.5077H130.113L127.164 0.820312ZM132.98 20.7049H140.763L142.711 14.2578L142.597 20.7049H147.781V24.6295H142.528L142.242 40.8594V57.6953H152.32V12.8551H141.986L142.086 12.5077H152.32V0.820312H138.688L132.98 20.7049ZM123.312 24.6295H113.531V57.6953H123.609V40.8594L123.312 24.6295ZM196.734 32.7734V24.1016H173.375V21.4534H168.836V24.6295H162.359V57.6953H200.68V48.8281H173.375V32.7734H196.734ZM162.359 20.7049H173.375V12.8551H165.758V12.5077H173.375V9.76562H200.562V0.820312H162.359V20.7049ZM297.32 39.8828H286.344C286.24 41.6016 285.953 43.0729 285.484 44.2969C285.016 45.5208 284.378 46.5234 283.57 47.3047C282.763 48.0859 281.786 48.6589 280.641 49.0234C279.495 49.388 278.206 49.5703 276.773 49.5703C275.706 49.5703 274.729 49.4531 273.844 49.2188C272.984 48.9583 272.203 48.5677 271.5 48.0469C270.849 47.5781 270.263 46.9922 269.742 46.2891C269.247 45.5859 268.818 44.7786 268.453 43.8672C267.932 42.5391 267.542 40.9896 267.281 39.2188C267.047 37.4219 266.93 35.3906 266.93 33.125V25.3906C266.93 24.3087 266.963 23.2762 267.028 22.293C266.311 22.857 265.676 23.5667 265.125 24.4222C265.081 24.4906 265.038 24.5597 264.996 24.6295H255.805C255.8 24.9075 255.797 25.1872 255.797 25.4688V33.125C255.797 35.5729 255.992 37.8906 256.383 40.0781C256.799 42.2656 257.385 44.2708 258.141 46.0938C258.922 47.9167 259.872 49.5833 260.992 51.0938C262.138 52.6042 263.44 53.8932 264.898 54.9609C266.487 56.1068 268.271 56.9922 270.25 57.6172C272.255 58.2161 274.43 58.5156 276.773 58.5156C279.742 58.5156 282.451 58.0859 284.898 57.2266C287.346 56.3411 289.456 55.0911 291.227 53.4766C292.997 51.862 294.404 49.9089 295.445 47.6172C296.513 45.3255 297.138 42.7474 297.32 39.8828ZM256.08 20.7049C256.153 20.1091 256.241 19.5226 256.344 18.9453C256.708 16.862 257.255 14.9349 257.984 13.1641C258.818 11.0026 259.911 9.07552 261.266 7.38281C262.62 5.6901 264.156 4.25781 265.875 3.08594C267.411 2.09635 269.091 1.34115 270.914 0.820312C272.763 0.273438 274.742 0 276.852 0C279.977 0 282.75 0.442708 285.172 1.32812C287.62 2.21354 289.703 3.47656 291.422 5.11719C293.141 6.75781 294.495 8.76302 295.484 11.1328C296.474 13.5026 297.099 16.1719 297.359 19.1406H286.422C286.318 17.4479 286.057 15.9635 285.641 14.6875C285.436 14.0196 285.182 13.4088 284.877 12.8551H288.113C286.926 12.4555 285.658 12.1585 284.309 11.964C284.185 11.7975 284.057 11.6376 283.922 11.4844C283.141 10.651 282.164 10.026 280.992 9.60938C279.846 9.16667 278.466 8.94531 276.852 8.94531C275.992 8.94531 275.185 9.03646 274.43 9.21875C273.701 9.40104 273.023 9.67448 272.398 10.0391C271.331 10.6641 270.419 11.5625 269.664 12.7344C268.935 13.8802 268.349 15.2214 267.906 16.7578C267.571 17.9455 267.325 19.2612 267.168 20.7049H256.08ZM340.875 32.7734V24.1016H317.516V21.4534H312.976V24.6295H306.5V57.6953H344.82V48.8281H317.516V32.7734H340.875ZM306.5 20.7049H317.516V12.8551H309.898V12.5077H317.516V9.76562H344.703V0.820312H306.5V20.7049ZM391.422 57.6953V12.8551H383.804L383.805 12.5077H391.422V0.820312H380.406L380.385 20.7049H386.883V24.6295H380.381L380.367 37.3438L364.664 0.820312H353.609V20.7049H363.649L364.664 23.0657V21.0156L380.484 57.6953H391.422ZM364.664 24.6295V57.6953H353.609V24.6295H364.664ZM443.766 9.76562V0.820312H397.906V9.76562H415.211V12.5077H426.227V9.76562H443.766ZM415.211 20.7049V12.8551H426.227V20.7049H415.211ZM415.211 24.6295V57.6953H426.227V21.4534H421.687V24.6295H415.211ZM485.016 32.7734V24.1016H461.656V21.4534H457.117V24.6295H450.641V57.6953H488.961V48.8281H461.656V32.7734H485.016ZM450.641 20.7049H461.656V12.8551H454.039V12.5077H461.656V9.76562H488.844V0.820312H450.641V20.7049ZM528.062 57.6953H539.82V57.1875L527.594 33.7109C529.156 33.0078 530.562 32.1745 531.812 31.2109C533.089 30.2474 534.182 29.1146 535.094 27.8125C535.979 26.5365 536.656 25.0911 537.125 23.4766C537.62 21.8359 537.867 20 537.867 17.9688C537.867 15.1562 537.372 12.6823 536.383 10.5469C535.419 8.41146 534.039 6.6276 532.242 5.19531C530.419 3.76302 528.232 2.68229 525.68 1.95312C523.128 1.19792 520.276 0.820312 517.125 0.820312H498.062V20.7049H509.039V12.8551H501.461V12.5077H509.039V9.72656H517.125C518.635 9.72656 519.977 9.90885 521.148 10.2734C522.32 10.638 523.31 11.1589 524.117 11.8359C524.466 12.1253 524.781 12.4452 525.062 12.7958C525.203 12.8146 525.343 12.8344 525.483 12.8551H525.109C525.538 13.4051 525.885 14.0289 526.148 14.7266C526.617 15.8724 526.852 17.2005 526.852 18.7109C526.852 19.4125 526.794 20.0771 526.679 20.7049H531.046C531.338 21.193 531.604 21.7029 531.844 22.2347C532.194 22.9905 532.482 23.7888 532.708 24.6295H524.87C524.84 24.6622 524.811 24.6945 524.781 24.7266C523.974 25.638 522.919 26.3411 521.617 26.8359C520.341 27.3047 518.857 27.5391 517.164 27.5391H509.039V21.4143H504.5V24.6295H498.062V57.6953H509.039V36.4453H517.359L528.062 57.6953ZM93.721 12.8551H83.5346L83.6484 12.5077H93.6094L93.721 12.8551ZM368.212 12.8551H357.008V12.5077H368.062L368.212 12.8551Z" fill="white"/>
<path fill-rule="evenodd" clip-rule="evenodd" d="M30.4859 48.1767H15.6221C15.8905 48.0811 16.1619 47.9914 16.4364 47.9075C18.3114 47.3346 20.2906 47.0481 22.3739 47.0481C25.4663 47.0481 28.1702 47.4243 30.4859 48.1767ZM76.1184 48.1767H65.932L66.0458 47.8293H76.0068L76.1184 48.1767ZM186.358 48.1767H148.155V47.8293H186.358V48.1767ZM270.511 48.1767H255.614C255.973 48.0512 256.339 47.9354 256.71 47.8293C258.559 47.2825 260.538 47.009 262.647 47.009C265.578 47.009 268.199 47.3983 270.511 48.1767ZM330.499 48.1767H292.296V47.8293H330.499V48.1767ZM429.561 48.1767H383.702V47.8293H429.561V48.1767ZM474.64 48.1767H436.436V47.8293H474.64V48.1767ZM507.88 48.1767H483.858V47.8293H502.921C504.666 47.8293 506.319 47.9451 507.88 48.1767ZM377.218 48.1767H366.202L366.202 47.8293H377.218V48.1767ZM350.609 48.1767H339.405V47.8293H350.46L350.609 48.1767ZM138.116 48.1767H124.384L124.483 47.8293H138.116V48.1767ZM113.048 48.1767H99.3271V47.8293H112.96L113.048 48.1767Z" fill="white"/>
<path fill-rule="evenodd" clip-rule="evenodd" d="M22.7087 59.9513H34.5247C35.2282 58.9236 36.003 58.0863 36.8492 57.4392C37.5263 56.9444 38.2554 56.5668 39.0367 56.3064C39.4018 56.1847 39.7725 56.0914 40.149 56.0266L24.7818 56.0266C24.2638 56.8162 23.781 57.6516 23.3336 58.533C23.1131 58.9928 22.9048 59.4655 22.7087 59.9513ZM58.8254 56.0266L43.282 56.0266C44.0634 56.1282 44.7707 56.2996 45.4039 56.5408C46.5237 56.9314 47.4481 57.5303 48.1773 58.3376C48.5953 58.8058 48.9542 59.3436 49.2541 59.9513H60.36C60.0967 59.0349 59.7858 58.1585 59.4273 57.322C59.2418 56.8767 59.0411 56.4449 58.8254 56.0266ZM98.7141 59.9513H80.8859L82.1717 56.0266H97.4526L98.7141 59.9513ZM177.982 59.9513H166.966V56.0266H205.169V56.7751H177.982V59.9513ZM274.142 59.9513H262.678C263.238 58.5419 263.909 57.2337 264.693 56.0266L280.179 56.0266C279.786 56.0722 279.405 56.1394 279.037 56.2283C278.308 56.4106 277.63 56.684 277.005 57.0486C275.938 57.6736 275.026 58.572 274.271 59.7439C274.228 59.8123 274.184 59.8814 274.142 59.9513ZM300.757 59.9513H289.531C289.243 59.4126 288.909 58.9268 288.529 58.4939C287.748 57.6606 286.771 57.0356 285.599 56.6189C284.83 56.3217 283.955 56.1243 282.975 56.0266L299.056 56.0266C299.437 56.6962 299.782 57.4015 300.091 58.1423C300.336 58.7271 300.558 59.3301 300.757 59.9513ZM322.123 59.9513H311.107V56.0266H349.31V56.7751H322.123V59.9513ZM430.834 59.9513H419.818V56.7751H402.513V56.0266H448.373V56.7751H430.834V59.9513ZM466.263 59.9513H455.248V56.0266H493.451V56.7751H466.263V59.9513ZM540.193 56.0266C540.484 56.5147 540.75 57.0247 540.99 57.5564C541.34 58.3123 541.628 59.1106 541.855 59.9513H529.782C529.474 59.5431 529.121 59.1745 528.724 58.8455C527.917 58.1684 526.927 57.6475 525.755 57.283C524.584 56.9184 523.242 56.7361 521.732 56.7361H513.646V59.9513H502.669V56.0266L540.193 56.0266ZM396.029 56.0266V59.9513H385L385.004 56.0266H396.029ZM358.216 56.0266H372.795L374.483 59.9513H358.216V56.0266ZM156.927 56.0266V59.9513H139.815L140.942 56.0266H156.927ZM118.138 56.0266H133.839L134.829 59.9513H118.138V56.0266Z" fill="white"/>
<path fill-rule="evenodd" clip-rule="evenodd" d="M40.8203 51.0547L40.7812 28.6328H20.4297V36.8359H29.8438L29.8047 47.1484C29.5182 47.487 29.0885 47.8125 28.5156 48.125C27.9688 48.4115 27.3307 48.6719 26.6016 48.9062C25.8724 49.1406 25.0911 49.3229 24.2578 49.4531C23.4245 49.5833 22.5781 49.6484 21.7188 49.6484C20.3125 49.6224 19.0495 49.401 17.9297 48.9844C16.8359 48.5417 15.8724 47.9036 15.0391 47.0703C14.5443 46.5755 14.0885 46.0156 13.6719 45.3906C13.2812 44.7396 12.9297 44.0365 12.6172 43.2812C12.1224 41.9792 11.7318 40.4818 11.4453 38.7891C11.1849 37.0964 11.0547 35.2214 11.0547 33.1641V25.3516C11.0547 25.1083 11.0567 24.8676 11.0607 24.6295H5.62505C5.82114 24.1438 6.02941 23.671 6.24988 23.2112C6.69732 22.3299 7.18007 21.4944 7.69812 20.7049H11.3395C11.5469 19.3288 11.8295 18.0782 12.1875 16.9531C12.6562 15.4688 13.2422 14.1797 13.9453 13.0859C14.6745 11.9922 15.4818 11.1068 16.3672 10.4297C17.0443 9.9349 17.7734 9.55729 18.5547 9.29688C19.3359 9.03646 20.1432 8.90625 20.9766 8.90625C22.513 8.90625 23.8281 9.11458 24.9219 9.53125C26.0417 9.92188 26.9661 10.5208 27.6953 11.3281C27.8764 11.531 28.0464 11.7469 28.2054 11.9759C29.6505 12.1634 30.9865 12.4564 32.2135 12.8551H28.7287C28.9137 13.219 29.077 13.6084 29.2188 14.0234C29.6094 15.0911 29.8958 16.3151 30.0781 17.6953H40.7812C40.4948 14.9609 39.8828 12.5 38.9453 10.3125C38.0339 8.125 36.7578 6.26302 35.1172 4.72656C33.4766 3.21615 31.4583 2.05729 29.0625 1.25C26.6927 0.442708 23.9062 0.0390625 20.7031 0.0390625C18.6198 0.0390625 16.6406 0.325521 14.7656 0.898438C12.8906 1.47135 11.1589 2.31771 9.57031 3.4375C8.21615 4.42708 6.96615 5.59896 5.82031 6.95312C4.70052 8.30729 3.71094 9.83073 2.85156 11.5234C1.9401 13.4245 1.23698 15.5469 0.742188 17.8906C0.247396 20.2083 0 22.7214 0 25.4297V33.1641C0 36.0026 0.247396 38.6328 0.742188 41.0547C1.26302 43.4766 2.01823 45.651 3.00781 47.5781C3.86719 49.3229 4.90885 50.8724 6.13281 52.2266C7.38281 53.5807 8.76302 54.7266 10.2734 55.6641C11.8099 56.5755 13.4896 57.2656 15.3125 57.7344C17.1615 58.2292 19.1276 58.4766 21.2109 58.4766C23.6068 58.4766 25.8464 58.2552 27.9297 57.8125C30.013 57.3698 31.901 56.7839 33.5938 56.0547C35.2604 55.3516 36.7057 54.5573 37.9297 53.6719C39.1536 52.7865 40.1172 51.9141 40.8203 51.0547ZM77.7344 45.8203L81.0547 57.6953H92.6172L74.3359 0.820312H64.375L45.7422 57.6953H57.3047L60.6641 45.8203H77.7344ZM67.8636 20.7049L69.3359 15.5469L70.7698 20.7049H80.3689L81.6304 24.6295H71.8608L75.1562 36.4844H63.3594L66.7433 24.6295H63.8022L65.088 20.7049H67.8636ZM111.289 0.820312H97.6562V57.6953H107.734V40.8594L107.437 24.6295H101.055V20.7049H107.365L107.266 15.3125L108.79 20.7049H116.306L114.325 12.8551H101.055V12.5077H114.238L111.289 0.820312ZM116.919 21.3537L117.745 24.6295H109.899L113.945 38.9453H119.375L123.701 24.6295H122.732L123.858 20.7049H124.888L126.836 14.2578L126.722 20.7049H136.445V12.8551H126.111L126.211 12.5077H136.445V0.820312H122.812L116.919 21.3537ZM136.445 24.6295H126.653L126.367 40.8594V57.6953H136.445V24.6295ZM180.859 32.7734V24.1016H160.898V24.6295H149.883V20.7049H157.5V12.8551H149.883V12.5077H157.5V9.76562H184.688V0.820312H146.484V57.6953H184.805V48.8281H157.5V32.7734H180.859ZM281.445 39.8828H270.469C270.365 41.6016 270.078 43.0729 269.609 44.2969C269.141 45.5208 268.503 46.5234 267.695 47.3047C266.888 48.0859 265.911 48.6589 264.766 49.0234C263.62 49.388 262.331 49.5703 260.898 49.5703C259.831 49.5703 258.854 49.4531 257.969 49.2188C257.109 48.9583 256.328 48.5677 255.625 48.0469C254.974 47.5781 254.388 46.9922 253.867 46.2891C253.372 45.5859 252.943 44.7786 252.578 43.8672C252.057 42.5391 251.667 40.9896 251.406 39.2188C251.172 37.4219 251.055 35.3906 251.055 33.125V25.3906C251.055 25.1342 251.057 24.8805 251.06 24.6295H245.595C246.154 23.2202 246.826 21.9119 247.61 20.7049H251.293C251.45 19.2612 251.696 17.9455 252.031 16.7578C252.474 15.2214 253.06 13.8802 253.789 12.7344C254.544 11.5625 255.456 10.6641 256.523 10.0391C257.148 9.67448 257.826 9.40104 258.555 9.21875C259.31 9.03646 260.117 8.94531 260.977 8.94531C262.591 8.94531 263.971 9.16667 265.117 9.60938C266.289 10.026 267.266 10.651 268.047 11.4844C268.182 11.6376 268.31 11.7975 268.434 11.964C269.783 12.1585 271.051 12.4555 272.238 12.8551H269.002C269.307 13.4088 269.561 14.0196 269.766 14.6875C270.182 15.9635 270.443 17.4479 270.547 19.1406H281.484C281.224 16.1719 280.599 13.5026 279.609 11.1328C278.62 8.76302 277.266 6.75781 275.547 5.11719C273.828 3.47656 271.745 2.21354 269.297 1.32812C266.875 0.442708 264.102 0 260.977 0C258.867 0 256.888 0.273438 255.039 0.820312C253.216 1.34115 251.536 2.09635 250 3.08594C248.281 4.25781 246.745 5.6901 245.391 7.38281C244.036 9.07552 242.943 11.0026 242.109 13.1641C241.38 14.9349 240.833 16.862 240.469 18.9453C240.104 21.0026 239.922 23.1771 239.922 25.4688V33.125C239.922 35.5729 240.117 37.8906 240.508 40.0781C240.924 42.2656 241.51 44.2708 242.266 46.0938C243.047 47.9167 243.997 49.5833 245.117 51.0938C246.263 52.6042 247.565 53.8932 249.023 54.9609C250.612 56.1068 252.396 56.9922 254.375 57.6172C256.38 58.2161 258.555 58.5156 260.898 58.5156C263.867 58.5156 266.576 58.0859 269.023 57.2266C271.471 56.3411 273.581 55.0911 275.352 53.4766C277.122 51.862 278.529 49.9089 279.57 47.6172C280.638 45.3255 281.263 42.7474 281.445 39.8828ZM325 32.7734V24.1016H305.039V24.6295H294.023V20.7049H301.641V12.8551H294.023V12.5077H301.641V9.76562H328.828V0.820312H290.625V57.6953H328.945V48.8281H301.641V32.7734H325ZM375.547 20.7049V12.8551H367.929L367.93 12.5077H375.547V0.820312H364.531L364.492 37.3438L348.789 0.820312H337.734V57.6953H348.789V24.6295H341.133V20.7049H355.712L357.399 24.6295H350.348L364.609 57.6953H375.547V24.6295H367.917L367.921 20.7049H375.547ZM427.891 9.76562V0.820312H382.031V9.76562H399.336V12.5077H410.352V9.76562H427.891ZM399.336 20.7049V12.8551H410.352V20.7049H399.336ZM399.336 21.4534V57.6953H410.352V24.6295H402.734V21.4534H399.336ZM469.141 32.7734V24.1016H449.18V24.6295H438.164V20.7049H445.781V12.8551H438.164V12.5077H445.781V9.76562H472.969V0.820312H434.766V57.6953H473.086V48.8281H445.781V32.7734H469.141ZM512.188 57.6953H523.945V57.1875L511.719 33.7109C513.281 33.0078 514.688 32.1745 515.938 31.2109C517.214 30.2474 518.307 29.1146 519.219 27.8125C519.888 26.8482 520.438 25.7872 520.869 24.6295H512.698C512.39 24.2214 512.038 23.8528 511.641 23.5237C511.225 23.1749 510.76 22.8676 510.248 22.6017C509.918 23.4098 509.471 24.118 508.906 24.7266C508.099 25.638 507.044 26.3411 505.742 26.8359C504.466 27.3047 502.982 27.5391 501.289 27.5391H493.164V24.6295H485.586V20.7049H493.164V12.8551H485.586V12.5077H493.164V9.72656H501.25C502.76 9.72656 504.102 9.90885 505.273 10.2734C506.445 10.638 507.435 11.1589 508.242 11.8359C508.591 12.1253 508.906 12.4452 509.187 12.7958C509.328 12.8146 509.468 12.8344 509.608 12.8551H509.234C509.663 13.4051 510.01 14.0289 510.273 14.7266C510.742 15.8724 510.977 17.2005 510.977 18.7109C510.977 19.4125 510.919 20.0771 510.804 20.7049H521.828C521.938 19.836 521.992 18.924 521.992 17.9688C521.992 15.1562 521.497 12.6823 520.508 10.5469C519.544 8.41146 518.164 6.6276 516.367 5.19531C514.544 3.76302 512.357 2.68229 509.805 1.95312C507.253 1.19792 504.401 0.820312 501.25 0.820312H482.188V57.6953H493.164V36.4453H501.484L512.188 57.6953ZM77.846 12.8551H67.6596L67.7734 12.5077H77.7344L77.846 12.8551ZM352.337 12.8551H341.133V12.5077H352.188L352.337 12.8551Z" fill="white"/>
<path fill-rule="evenodd" clip-rule="evenodd" d="M46.3609 48.1767H31.4971C31.7655 48.0811 32.0369 47.9914 32.3114 47.9075C34.1864 47.3346 36.1656 47.0481 38.2489 47.0481C41.3413 47.0481 44.0452 47.4243 46.3609 48.1767ZM91.9934 48.1767H81.807L81.9208 47.8293H91.8818L91.9934 48.1767ZM202.233 48.1767H164.03V47.8293H202.233V48.1767ZM286.386 48.1767H271.489C271.848 48.0512 272.214 47.9354 272.585 47.8293C274.434 47.2825 276.413 47.009 278.522 47.009C281.453 47.009 284.074 47.3983 286.386 48.1767ZM346.374 48.1767H308.171V47.8293H346.374V48.1767ZM445.436 48.1767H399.577V47.8293H445.436V48.1767ZM490.515 48.1767H452.311V47.8293H490.515V48.1767ZM523.755 48.1767H499.733V47.8293H518.796C520.541 47.8293 522.194 47.9451 523.755 48.1767ZM393.093 48.1767H382.077L382.077 47.8293H393.093V48.1767ZM366.484 48.1767H355.28V47.8293H366.335L366.484 48.1767ZM153.991 48.1767H140.259L140.358 47.8293H153.991V48.1767ZM128.923 48.1767H115.202V47.8293H128.835L128.923 48.1767Z" fill="#B34FFF" style="mix-blend-mode:multiply"/>
<path fill-rule="evenodd" clip-rule="evenodd" d="M38.5837 59.9513H50.3997C51.1032 58.9236 51.878 58.0863 52.7242 57.4392C53.4013 56.9444 54.1304 56.5668 54.9117 56.3064C55.2768 56.1847 55.6475 56.0914 56.024 56.0266L40.6568 56.0266C40.1388 56.8162 39.656 57.6516 39.2086 58.533C38.9881 58.9928 38.7798 59.4655 38.5837 59.9513ZM74.7004 56.0266L59.157 56.0266C59.9384 56.1282 60.6457 56.2996 61.2789 56.5408C62.3987 56.9314 63.3231 57.5303 64.0523 58.3376C64.4703 58.8058 64.8292 59.3436 65.1291 59.9513H76.235C75.9717 59.0349 75.6608 58.1585 75.3023 57.322C75.1168 56.8767 74.9161 56.4449 74.7004 56.0266ZM114.589 59.9513H96.7609L98.0467 56.0266H113.328L114.589 59.9513ZM193.857 59.9513H182.841V56.0266H221.044V56.7751H193.857V59.9513ZM290.017 59.9513H278.553C279.113 58.5419 279.784 57.2337 280.568 56.0266L296.054 56.0266C295.661 56.0722 295.28 56.1394 294.912 56.2283C294.183 56.4106 293.505 56.684 292.88 57.0486C291.813 57.6736 290.901 58.572 290.146 59.7439C290.103 59.8123 290.059 59.8814 290.017 59.9513ZM316.632 59.9513H305.406C305.118 59.4126 304.784 58.9268 304.404 58.4939C303.623 57.6606 302.646 57.0356 301.474 56.6189C300.705 56.3217 299.83 56.1243 298.85 56.0266L314.931 56.0266C315.312 56.6962 315.657 57.4015 315.966 58.1423C316.211 58.7271 316.433 59.3301 316.632 59.9513ZM337.998 59.9513H326.982V56.0266H365.185V56.7751H337.998V59.9513ZM446.709 59.9513H435.693V56.7751H418.388V56.0266H464.248V56.7751H446.709V59.9513ZM482.138 59.9513H471.123V56.0266H509.326V56.7751H482.138V59.9513ZM556.068 56.0266C556.359 56.5147 556.625 57.0247 556.865 57.5564C557.215 58.3123 557.503 59.1106 557.73 59.9513H545.657C545.349 59.5431 544.996 59.1745 544.599 58.8455C543.792 58.1684 542.802 57.6475 541.63 57.283C540.459 56.9184 539.117 56.7361 537.607 56.7361H529.521V59.9513H518.544V56.0266L556.068 56.0266ZM411.904 56.0266V59.9513H400.875L400.879 56.0266H411.904ZM374.091 56.0266H388.67L390.358 59.9513H374.091V56.0266ZM172.802 56.0266V59.9513H155.69L156.817 56.0266H172.802ZM134.013 56.0266H149.714L150.704 59.9513H134.013V56.0266Z" fill="#B34FFF" style="mix-blend-mode:multiply"/>
<path fill-rule="evenodd" clip-rule="evenodd" d="M56.6953 51.0547L56.6562 28.6328H36.3047V36.8359H45.7188L45.6797 47.1484C45.3932 47.487 44.9635 47.8125 44.3906 48.125C43.8438 48.4115 43.2057 48.6719 42.4766 48.9062C41.7474 49.1406 40.9661 49.3229 40.1328 49.4531C39.2995 49.5833 38.4531 49.6484 37.5938 49.6484C36.1875 49.6224 34.9245 49.401 33.8047 48.9844C32.7109 48.5417 31.7474 47.9036 30.9141 47.0703C30.4193 46.5755 29.9635 46.0156 29.5469 45.3906C29.1562 44.7396 28.8047 44.0365 28.4922 43.2812C27.9974 41.9792 27.6068 40.4818 27.3203 38.7891C27.0599 37.0964 26.9297 35.2214 26.9297 33.1641V25.3516C26.9297 24.4306 26.9584 23.5465 27.0159 22.6994C26.4328 23.2433 25.887 23.8867 25.3785 24.6295H15.8823C15.8774 24.8943 15.875 25.1611 15.875 25.4297V33.1641C15.875 36.0026 16.1224 38.6328 16.6172 41.0547C17.138 43.4766 17.8932 45.651 18.8828 47.5781C19.7422 49.3229 20.7839 50.8724 22.0078 52.2266C23.2578 53.5807 24.638 54.7266 26.1484 55.6641C27.6849 56.5755 29.3646 57.2656 31.1875 57.7344C33.0365 58.2292 35.0026 58.4766 37.0859 58.4766C39.4818 58.4766 41.7214 58.2552 43.8047 57.8125C45.888 57.3698 47.776 56.7839 49.4688 56.0547C51.1354 55.3516 52.5807 54.5573 53.8047 53.6719C55.0286 52.7865 55.9922 51.9141 56.6953 51.0547ZM16.1495 20.7049H27.2145C27.4219 19.3288 27.7045 18.0782 28.0625 16.9531C28.5312 15.4688 29.1172 14.1797 29.8203 13.0859C30.5495 11.9922 31.3568 11.1068 32.2422 10.4297C32.9193 9.9349 33.6484 9.55729 34.4297 9.29688C35.2109 9.03646 36.0182 8.90625 36.8516 8.90625C38.388 8.90625 39.7031 9.11458 40.7969 9.53125C41.9167 9.92188 42.8411 10.5208 43.5703 11.3281C43.7514 11.531 43.9214 11.7469 44.0804 11.9759C45.5255 12.1634 46.8615 12.4564 48.0885 12.8551H44.6037C44.7887 13.219 44.952 13.6084 45.0938 14.0234C45.4844 15.0911 45.7708 16.3151 45.9531 17.6953H56.6562C56.3698 14.9609 55.7578 12.5 54.8203 10.3125C53.9089 8.125 52.6328 6.26302 50.9922 4.72656C49.3516 3.21615 47.3333 2.05729 44.9375 1.25C42.5677 0.442708 39.7812 0.0390625 36.5781 0.0390625C34.4948 0.0390625 32.5156 0.325521 30.6406 0.898438C28.7656 1.47135 27.0339 2.31771 25.4453 3.4375C24.0911 4.42708 22.8411 5.59896 21.6953 6.95312C20.5755 8.30729 19.5859 9.83073 18.7266 11.5234C17.8151 13.4245 17.112 15.5469 16.6172 17.8906C16.4233 18.7987 16.2674 19.7368 16.1495 20.7049ZM93.6094 45.8203L96.9297 57.6953H108.492L90.2109 0.820312H80.25L73.7356 20.7049H83.7386L85.2109 15.5469L86.6448 20.7049H88.3064L89.5679 24.6295H87.7358L91.0312 36.4844H79.2344L82.6183 24.6295H72.4499L61.6172 57.6953H73.1797L76.5391 45.8203H93.6094ZM127.164 0.820312H113.531V20.7049H123.24L123.141 15.3125L124.665 20.7049H124.693L124.926 21.6288L129.82 38.9453H135.25L139.576 24.6295H130.669L131.796 20.7049H132.181L130.2 12.8551H116.93V12.5077H130.113L127.164 0.820312ZM132.98 20.7049H140.763L142.711 14.2578L142.597 20.7049H147.781V24.6295H142.528L142.242 40.8594V57.6953H152.32V12.8551H141.986L142.086 12.5077H152.32V0.820312H138.688L132.98 20.7049ZM123.312 24.6295H113.531V57.6953H123.609V40.8594L123.312 24.6295ZM196.734 32.7734V24.1016H173.375V21.4534H168.836V24.6295H162.359V57.6953H200.68V48.8281H173.375V32.7734H196.734ZM162.359 20.7049H173.375V12.8551H165.758V12.5077H173.375V9.76562H200.562V0.820312H162.359V20.7049ZM297.32 39.8828H286.344C286.24 41.6016 285.953 43.0729 285.484 44.2969C285.016 45.5208 284.378 46.5234 283.57 47.3047C282.763 48.0859 281.786 48.6589 280.641 49.0234C279.495 49.388 278.206 49.5703 276.773 49.5703C275.706 49.5703 274.729 49.4531 273.844 49.2188C272.984 48.9583 272.203 48.5677 271.5 48.0469C270.849 47.5781 270.263 46.9922 269.742 46.2891C269.247 45.5859 268.818 44.7786 268.453 43.8672C267.932 42.5391 267.542 40.9896 267.281 39.2188C267.047 37.4219 266.93 35.3906 266.93 33.125V25.3906C266.93 24.3087 266.963 23.2762 267.028 22.293C266.311 22.857 265.676 23.5667 265.125 24.4222C265.081 24.4906 265.038 24.5597 264.996 24.6295H255.805C255.8 24.9075 255.797 25.1872 255.797 25.4688V33.125C255.797 35.5729 255.992 37.8906 256.383 40.0781C256.799 42.2656 257.385 44.2708 258.141 46.0938C258.922 47.9167 259.872 49.5833 260.992 51.0938C262.138 52.6042 263.44 53.8932 264.898 54.9609C266.487 56.1068 268.271 56.9922 270.25 57.6172C272.255 58.2161 274.43 58.5156 276.773 58.5156C279.742 58.5156 282.451 58.0859 284.898 57.2266C287.346 56.3411 289.456 55.0911 291.227 53.4766C292.997 51.862 294.404 49.9089 295.445 47.6172C296.513 45.3255 297.138 42.7474 297.32 39.8828ZM256.08 20.7049C256.153 20.1091 256.241 19.5226 256.344 18.9453C256.708 16.862 257.255 14.9349 257.984 13.1641C258.818 11.0026 259.911 9.07552 261.266 7.38281C262.62 5.6901 264.156 4.25781 265.875 3.08594C267.411 2.09635 269.091 1.34115 270.914 0.820312C272.763 0.273438 274.742 0 276.852 0C279.977 0 282.75 0.442708 285.172 1.32812C287.62 2.21354 289.703 3.47656 291.422 5.11719C293.141 6.75781 294.495 8.76302 295.484 11.1328C296.474 13.5026 297.099 16.1719 297.359 19.1406H286.422C286.318 17.4479 286.057 15.9635 285.641 14.6875C285.436 14.0196 285.182 13.4088 284.877 12.8551H288.113C286.926 12.4555 285.658 12.1585 284.309 11.964C284.185 11.7975 284.057 11.6376 283.922 11.4844C283.141 10.651 282.164 10.026 280.992 9.60938C279.846 9.16667 278.466 8.94531 276.852 8.94531C275.992 8.94531 275.185 9.03646 274.43 9.21875C273.701 9.40104 273.023 9.67448 272.398 10.0391C271.331 10.6641 270.419 11.5625 269.664 12.7344C268.935 13.8802 268.349 15.2214 267.906 16.7578C267.571 17.9455 267.325 19.2612 267.168 20.7049H256.08ZM340.875 32.7734V24.1016H317.516V21.4534H312.976V24.6295H306.5V57.6953H344.82V48.8281H317.516V32.7734H340.875ZM306.5 20.7049H317.516V12.8551H309.898V12.5077H317.516V9.76562H344.703V0.820312H306.5V20.7049ZM391.422 57.6953V12.8551H383.804L383.805 12.5077H391.422V0.820312H380.406L380.385 20.7049H386.883V24.6295H380.381L380.367 37.3438L364.664 0.820312H353.609V20.7049H363.649L364.664 23.0657V21.0156L380.484 57.6953H391.422ZM364.664 24.6295V57.6953H353.609V24.6295H364.664ZM443.766 9.76562V0.820312H397.906V9.76562H415.211V12.5077H426.227V9.76562H443.766ZM415.211 20.7049V12.8551H426.227V20.7049H415.211ZM415.211 24.6295V57.6953H426.227V21.4534H421.687V24.6295H415.211ZM485.016 32.7734V24.1016H461.656V21.4534H457.117V24.6295H450.641V57.6953H488.961V48.8281H461.656V32.7734H485.016ZM450.641 20.7049H461.656V12.8551H454.039V12.5077H461.656V9.76562H488.844V0.820312H450.641V20.7049ZM528.062 57.6953H539.82V57.1875L527.594 33.7109C529.156 33.0078 530.562 32.1745 531.812 31.2109C533.089 30.2474 534.182 29.1146 535.094 27.8125C535.979 26.5365 536.656 25.0911 537.125 23.4766C537.62 21.8359 537.867 20 537.867 17.9688C537.867 15.1562 537.372 12.6823 536.383 10.5469C535.419 8.41146 534.039 6.6276 532.242 5.19531C530.419 3.76302 528.232 2.68229 525.68 1.95312C523.128 1.19792 520.276 0.820312 517.125 0.820312H498.062V20.7049H509.039V12.8551H501.461V12.5077H509.039V9.72656H517.125C518.635 9.72656 519.977 9.90885 521.148 10.2734C522.32 10.638 523.31 11.1589 524.117 11.8359C524.466 12.1253 524.781 12.4452 525.062 12.7958C525.203 12.8146 525.343 12.8344 525.483 12.8551H525.109C525.538 13.4051 525.885 14.0289 526.148 14.7266C526.617 15.8724 526.852 17.2005 526.852 18.7109C526.852 19.4125 526.794 20.0771 526.679 20.7049H531.046C531.338 21.193 531.604 21.7029 531.844 22.2347C532.194 22.9905 532.482 23.7888 532.708 24.6295H524.87C524.84 24.6622 524.811 24.6945 524.781 24.7266C523.974 25.638 522.919 26.3411 521.617 26.8359C520.341 27.3047 518.857 27.5391 517.164 27.5391H509.039V21.4143H504.5V24.6295H498.062V57.6953H509.039V36.4453H517.359L528.062 57.6953ZM93.721 12.8551H83.5346L83.6484 12.5077H93.6094L93.721 12.8551ZM368.212 12.8551H357.008V12.5077H368.062L368.212 12.8551Z" fill="#B34FFF" style="mix-blend-mode:multiply"/>
<path fill-rule="evenodd" clip-rule="evenodd" d="M30.4859 48.1767H15.6221C15.8905 48.0811 16.1619 47.9914 16.4364 47.9075C18.3114 47.3346 20.2906 47.0481 22.3739 47.0481C25.4663 47.0481 28.1702 47.4243 30.4859 48.1767ZM76.1184 48.1767H65.932L66.0458 47.8293H76.0068L76.1184 48.1767ZM186.358 48.1767H148.155V47.8293H186.358V48.1767ZM270.511 48.1767H255.614C255.973 48.0512 256.339 47.9354 256.71 47.8293C258.559 47.2825 260.538 47.009 262.647 47.009C265.578 47.009 268.199 47.3983 270.511 48.1767ZM330.499 48.1767H292.296V47.8293H330.499V48.1767ZM429.561 48.1767H383.702V47.8293H429.561V48.1767ZM474.64 48.1767H436.436V47.8293H474.64V48.1767ZM507.88 48.1767H483.858V47.8293H502.921C504.666 47.8293 506.319 47.9451 507.88 48.1767ZM377.218 48.1767H366.202L366.202 47.8293H377.218V48.1767ZM350.609 48.1767H339.405V47.8293H350.46L350.609 48.1767ZM138.116 48.1767H124.384L124.483 47.8293H138.116V48.1767ZM113.048 48.1767H99.3271V47.8293H112.96L113.048 48.1767Z" fill="#5AFFBA" style="mix-blend-mode:multiply"/>
<path fill-rule="evenodd" clip-rule="evenodd" d="M22.7087 59.9513H34.5247C35.2282 58.9236 36.003 58.0863 36.8492 57.4392C37.5263 56.9444 38.2554 56.5668 39.0367 56.3064C39.4018 56.1847 39.7725 56.0914 40.149 56.0266L24.7818 56.0266C24.2638 56.8162 23.781 57.6516 23.3336 58.533C23.1131 58.9928 22.9048 59.4655 22.7087 59.9513ZM58.8254 56.0266L43.282 56.0266C44.0634 56.1282 44.7707 56.2996 45.4039 56.5408C46.5237 56.9314 47.4481 57.5303 48.1773 58.3376C48.5953 58.8058 48.9542 59.3436 49.2541 59.9513H60.36C60.0967 59.0349 59.7858 58.1585 59.4273 57.322C59.2418 56.8767 59.0411 56.4449 58.8254 56.0266ZM98.7141 59.9513H80.8859L82.1717 56.0266H97.4526L98.7141 59.9513ZM177.982 59.9513H166.966V56.0266H205.169V56.7751H177.982V59.9513ZM274.142 59.9513H262.678C263.238 58.5419 263.909 57.2337 264.693 56.0266L280.179 56.0266C279.786 56.0722 279.405 56.1394 279.037 56.2283C278.308 56.4106 277.63 56.684 277.005 57.0486C275.938 57.6736 275.026 58.572 274.271 59.7439C274.228 59.8123 274.184 59.8814 274.142 59.9513ZM300.757 59.9513H289.531C289.243 59.4126 288.909 58.9268 288.529 58.4939C287.748 57.6606 286.771 57.0356 285.599 56.6189C284.83 56.3217 283.955 56.1243 282.975 56.0266L299.056 56.0266C299.437 56.6962 299.782 57.4015 300.091 58.1423C300.336 58.7271 300.558 59.3301 300.757 59.9513ZM322.123 59.9513H311.107V56.0266H349.31V56.7751H322.123V59.9513ZM430.834 59.9513H419.818V56.7751H402.513V56.0266H448.373V56.7751H430.834V59.9513ZM466.263 59.9513H455.248V56.0266H493.451V56.7751H466.263V59.9513ZM540.193 56.0266C540.484 56.5147 540.75 57.0247 540.99 57.5564C541.34 58.3123 541.628 59.1106 541.855 59.9513H529.782C529.474 59.5431 529.121 59.1745 528.724 58.8455C527.917 58.1684 526.927 57.6475 525.755 57.283C524.584 56.9184 523.242 56.7361 521.732 56.7361H513.646V59.9513H502.669V56.0266L540.193 56.0266ZM396.029 56.0266V59.9513H385L385.004 56.0266H396.029ZM358.216 56.0266H372.795L374.483 59.9513H358.216V56.0266ZM156.927 56.0266V59.9513H139.815L140.942 56.0266H156.927ZM118.138 56.0266H133.839L134.829 59.9513H118.138V56.0266Z" fill="#5AFFBA" style="mix-blend-mode:multiply"/>
<path fill-rule="evenodd" clip-rule="evenodd" d="M40.8203 51.0547L40.7812 28.6328H20.4297V36.8359H29.8438L29.8047 47.1484C29.5182 47.487 29.0885 47.8125 28.5156 48.125C27.9688 48.4115 27.3307 48.6719 26.6016 48.9062C25.8724 49.1406 25.0911 49.3229 24.2578 49.4531C23.4245 49.5833 22.5781 49.6484 21.7188 49.6484C20.3125 49.6224 19.0495 49.401 17.9297 48.9844C16.8359 48.5417 15.8724 47.9036 15.0391 47.0703C14.5443 46.5755 14.0885 46.0156 13.6719 45.3906C13.2812 44.7396 12.9297 44.0365 12.6172 43.2812C12.1224 41.9792 11.7318 40.4818 11.4453 38.7891C11.1849 37.0964 11.0547 35.2214 11.0547 33.1641V25.3516C11.0547 25.1083 11.0567 24.8676 11.0607 24.6295H5.62505C5.82114 24.1438 6.02941 23.671 6.24988 23.2112C6.69732 22.3299 7.18007 21.4944 7.69812 20.7049H11.3395C11.5469 19.3288 11.8295 18.0782 12.1875 16.9531C12.6562 15.4688 13.2422 14.1797 13.9453 13.0859C14.6745 11.9922 15.4818 11.1068 16.3672 10.4297C17.0443 9.9349 17.7734 9.55729 18.5547 9.29688C19.3359 9.03646 20.1432 8.90625 20.9766 8.90625C22.513 8.90625 23.8281 9.11458 24.9219 9.53125C26.0417 9.92188 26.9661 10.5208 27.6953 11.3281C27.8764 11.531 28.0464 11.7469 28.2054 11.9759C29.6505 12.1634 30.9865 12.4564 32.2135 12.8551H28.7287C28.9137 13.219 29.077 13.6084 29.2188 14.0234C29.6094 15.0911 29.8958 16.3151 30.0781 17.6953H40.7812C40.4948 14.9609 39.8828 12.5 38.9453 10.3125C38.0339 8.125 36.7578 6.26302 35.1172 4.72656C33.4766 3.21615 31.4583 2.05729 29.0625 1.25C26.6927 0.442708 23.9062 0.0390625 20.7031 0.0390625C18.6198 0.0390625 16.6406 0.325521 14.7656 0.898438C12.8906 1.47135 11.1589 2.31771 9.57031 3.4375C8.21615 4.42708 6.96615 5.59896 5.82031 6.95312C4.70052 8.30729 3.71094 9.83073 2.85156 11.5234C1.9401 13.4245 1.23698 15.5469 0.742188 17.8906C0.247396 20.2083 0 22.7214 0 25.4297V33.1641C0 36.0026 0.247396 38.6328 0.742188 41.0547C1.26302 43.4766 2.01823 45.651 3.00781 47.5781C3.86719 49.3229 4.90885 50.8724 6.13281 52.2266C7.38281 53.5807 8.76302 54.7266 10.2734 55.6641C11.8099 56.5755 13.4896 57.2656 15.3125 57.7344C17.1615 58.2292 19.1276 58.4766 21.2109 58.4766C23.6068 58.4766 25.8464 58.2552 27.9297 57.8125C30.013 57.3698 31.901 56.7839 33.5938 56.0547C35.2604 55.3516 36.7057 54.5573 37.9297 53.6719C39.1536 52.7865 40.1172 51.9141 40.8203 51.0547ZM77.7344 45.8203L81.0547 57.6953H92.6172L74.3359 0.820312H64.375L45.7422 57.6953H57.3047L60.6641 45.8203H77.7344ZM67.8636 20.7049L69.3359 15.5469L70.7698 20.7049H80.3689L81.6304 24.6295H71.8608L75.1562 36.4844H63.3594L66.7433 24.6295H63.8022L65.088 20.7049H67.8636ZM111.289 0.820312H97.6562V57.6953H107.734V40.8594L107.437 24.6295H101.055V20.7049H107.365L107.266 15.3125L108.79 20.7049H116.306L114.325 12.8551H101.055V12.5077H114.238L111.289 0.820312ZM116.919 21.3537L117.745 24.6295H109.899L113.945 38.9453H119.375L123.701 24.6295H122.732L123.858 20.7049H124.888L126.836 14.2578L126.722 20.7049H136.445V12.8551H126.111L126.211 12.5077H136.445V0.820312H122.812L116.919 21.3537ZM136.445 24.6295H126.653L126.367 40.8594V57.6953H136.445V24.6295ZM180.859 32.7734V24.1016H160.898V24.6295H149.883V20.7049H157.5V12.8551H149.883V12.5077H157.5V9.76562H184.688V0.820312H146.484V57.6953H184.805V48.8281H157.5V32.7734H180.859ZM281.445 39.8828H270.469C270.365 41.6016 270.078 43.0729 269.609 44.2969C269.141 45.5208 268.503 46.5234 267.695 47.3047C266.888 48.0859 265.911 48.6589 264.766 49.0234C263.62 49.388 262.331 49.5703 260.898 49.5703C259.831 49.5703 258.854 49.4531 257.969 49.2188C257.109 48.9583 256.328 48.5677 255.625 48.0469C254.974 47.5781 254.388 46.9922 253.867 46.2891C253.372 45.5859 252.943 44.7786 252.578 43.8672C252.057 42.5391 251.667 40.9896 251.406 39.2188C251.172 37.4219 251.055 35.3906 251.055 33.125V25.3906C251.055 25.1342 251.057 24.8805 251.06 24.6295H245.595C246.154 23.2202 246.826 21.9119 247.61 20.7049H251.293C251.45 19.2612 251.696 17.9455 252.031 16.7578C252.474 15.2214 253.06 13.8802 253.789 12.7344C254.544 11.5625 255.456 10.6641 256.523 10.0391C257.148 9.67448 257.826 9.40104 258.555 9.21875C259.31 9.03646 260.117 8.94531 260.977 8.94531C262.591 8.94531 263.971 9.16667 265.117 9.60938C266.289 10.026 267.266 10.651 268.047 11.4844C268.182 11.6376 268.31 11.7975 268.434 11.964C269.783 12.1585 271.051 12.4555 272.238 12.8551H269.002C269.307 13.4088 269.561 14.0196 269.766 14.6875C270.182 15.9635 270.443 17.4479 270.547 19.1406H281.484C281.224 16.1719 280.599 13.5026 279.609 11.1328C278.62 8.76302 277.266 6.75781 275.547 5.11719C273.828 3.47656 271.745 2.21354 269.297 1.32812C266.875 0.442708 264.102 0 260.977 0C258.867 0 256.888 0.273438 255.039 0.820312C253.216 1.34115 251.536 2.09635 250 3.08594C248.281 4.25781 246.745 5.6901 245.391 7.38281C244.036 9.07552 242.943 11.0026 242.109 13.1641C241.38 14.9349 240.833 16.862 240.469 18.9453C240.104 21.0026 239.922 23.1771 239.922 25.4688V33.125C239.922 35.5729 240.117 37.8906 240.508 40.0781C240.924 42.2656 241.51 44.2708 242.266 46.0938C243.047 47.9167 243.997 49.5833 245.117 51.0938C246.263 52.6042 247.565 53.8932 249.023 54.9609C250.612 56.1068 252.396 56.9922 254.375 57.6172C256.38 58.2161 258.555 58.5156 260.898 58.5156C263.867 58.5156 266.576 58.0859 269.023 57.2266C271.471 56.3411 273.581 55.0911 275.352 53.4766C277.122 51.862 278.529 49.9089 279.57 47.6172C280.638 45.3255 281.263 42.7474 281.445 39.8828ZM325 32.7734V24.1016H305.039V24.6295H294.023V20.7049H301.641V12.8551H294.023V12.5077H301.641V9.76562H328.828V0.820312H290.625V57.6953H328.945V48.8281H301.641V32.7734H325ZM375.547 20.7049V12.8551H367.929L367.93 12.5077H375.547V0.820312H364.531L364.492 37.3438L348.789 0.820312H337.734V57.6953H348.789V24.6295H341.133V20.7049H355.712L357.399 24.6295H350.348L364.609 57.6953H375.547V24.6295H367.917L367.921 20.7049H375.547ZM427.891 9.76562V0.820312H382.031V9.76562H399.336V12.5077H410.352V9.76562H427.891ZM399.336 20.7049V12.8551H410.352V20.7049H399.336ZM399.336 21.4534V57.6953H410.352V24.6295H402.734V21.4534H399.336ZM469.141 32.7734V24.1016H449.18V24.6295H438.164V20.7049H445.781V12.8551H438.164V12.5077H445.781V9.76562H472.969V0.820312H434.766V57.6953H473.086V48.8281H445.781V32.7734H469.141ZM512.188 57.6953H523.945V57.1875L511.719 33.7109C513.281 33.0078 514.688 32.1745 515.938 31.2109C517.214 30.2474 518.307 29.1146 519.219 27.8125C519.888 26.8482 520.438 25.7872 520.869 24.6295H512.698C512.39 24.2214 512.038 23.8528 511.641 23.5237C511.225 23.1749 510.76 22.8676 510.248 22.6017C509.918 23.4098 509.471 24.118 508.906 24.7266C508.099 25.638 507.044 26.3411 505.742 26.8359C504.466 27.3047 502.982 27.5391 501.289 27.5391H493.164V24.6295H485.586V20.7049H493.164V12.8551H485.586V12.5077H493.164V9.72656H501.25C502.76 9.72656 504.102 9.90885 505.273 10.2734C506.445 10.638 507.435 11.1589 508.242 11.8359C508.591 12.1253 508.906 12.4452 509.187 12.7958C509.328 12.8146 509.468 12.8344 509.608 12.8551H509.234C509.663 13.4051 510.01 14.0289 510.273 14.7266C510.742 15.8724 510.977 17.2005 510.977 18.7109C510.977 19.4125 510.919 20.0771 510.804 20.7049H521.828C521.938 19.836 521.992 18.924 521.992 17.9688C521.992 15.1562 521.497 12.6823 520.508 10.5469C519.544 8.41146 518.164 6.6276 516.367 5.19531C514.544 3.76302 512.357 2.68229 509.805 1.95312C507.253 1.19792 504.401 0.820312 501.25 0.820312H482.188V57.6953H493.164V36.4453H501.484L512.188 57.6953ZM77.846 12.8551H67.6596L67.7734 12.5077H77.7344L77.846 12.8551ZM352.337 12.8551H341.133V12.5077H352.188L352.337 12.8551Z" fill="#5AFFBA" style="mix-blend-mode:multiply"/>
</svg>
